solid OpenSCAD_Model
  facet normal 0 0 -1
    outer loop
      vertex 8.82234 -1 0
      vertex 11.2575 -1.72207 0
      vertex 10.8416 -2.50007 0
    endloop
  endfacet
  facet normal 0 0 -1
    outer loop
      vertex 8.76294 -1.11114 0
      vertex 10.8416 -2.50007 0
      vertex 10.282 -3.18198 0
    endloop
  endfacet
  facet normal 0 0 -1
    outer loop
      vertex 8.51421 -1.41421 0
      vertex 10.282 -3.18198 0
      vertex 9.60007 -3.74161 0
    endloop
  endfacet
  facet normal 0 0 -1
    outer loop
      vertex 10.8416 -2.50007 0
      vertex 8.76294 -1.11114 0
      vertex 8.82234 -1 0
    endloop
  endfacet
  facet normal 0 0 -1
    outer loop
      vertex 8.21114 -1.66294 0
      vertex 9.60007 -3.74161 0
      vertex 8.82207 -4.15746 0
    endloop
  endfacet
  facet normal 0 0 -1
    outer loop
      vertex 11.2575 -1.72207 0
      vertex 8.82234 -1 0
      vertex 11.4765 -1 0
    endloop
  endfacet
  facet normal 0 0 -1
    outer loop
      vertex 10.282 -3.18198 0
      vertex 8.51421 -1.41421 0
      vertex 8.76294 -1.11114 0
    endloop
  endfacet
  facet normal 0 0 -1
    outer loop
      vertex 9.60007 -3.74161 0
      vertex 8.21114 -1.66294 0
      vertex 8.51421 -1.41421 0
    endloop
  endfacet
  facet normal 0 0 -1
    outer loop
      vertex 8.82207 -4.15746 0
      vertex 7.86537 -1.84776 0
      vertex 8.21114 -1.66294 0
    endloop
  endfacet
  facet normal 0 0 -1
    outer loop
      vertex 8.82207 -4.15746 0
      vertex 7.49018 -1.96157 0
      vertex 7.86537 -1.84776 0
    endloop
  endfacet
  facet normal 0 0 -1
    outer loop
      vertex 8.82207 -4.15746 0
      vertex 7.1 -2 0
      vertex 7.49018 -1.96157 0
    endloop
  endfacet
  facet normal 0 0 -1
    outer loop
      vertex 8.82207 -4.15746 0
      vertex 6.70982 -1.96157 0
      vertex 7.1 -2 0
    endloop
  endfacet
  facet normal 0 0 -1
    outer loop
      vertex 2.52571 -6.0976 0
      vertex 6.70982 -1.96157 0
      vertex 8.82207 -4.15746 0
    endloop
  endfacet
  facet normal -0 0 -1
    outer loop
      vertex 6.70982 -1.96157 0
      vertex 2.52571 -6.0976 0
      vertex 6.33463 -1.84776 0
    endloop
  endfacet
  facet normal 0 -0 -1
    outer loop
      vertex 2.89914 -2.89914 0
      vertex 6.33463 -1.84776 0
      vertex 2.52571 -6.0976 0
    endloop
  endfacet
  facet normal 0 0 -1
    outer loop
      vertex 5.43706 -1.11114 0
      vertex 4.02118 -0.799999 0
      vertex 5.27075 -0.799999 0
    endloop
  endfacet
  facet normal 0 0 -1
    outer loop
      vertex 3.78791 -1.569 0
      vertex 5.43706 -1.11114 0
      vertex 5.68579 -1.41421 0
    endloop
  endfacet
  facet normal -0 0 -1
    outer loop
      vertex 6.33463 -1.84776 0
      vertex 3.40903 -2.27784 0
      vertex 5.98886 -1.66294 0
    endloop
  endfacet
  facet normal -0 0 -1
    outer loop
      vertex 5.43706 -1.11114 0
      vertex 3.78791 -1.569 0
      vertex 4.02118 -0.799999 0
    endloop
  endfacet
  facet normal 0 0 -1
    outer loop
      vertex 5.68579 -1.41421 0
      vertex 3.40903 -2.27784 0
      vertex 3.78791 -1.569 0
    endloop
  endfacet
  facet normal -0 0 -1
    outer loop
      vertex 5.98886 -1.66294 0
      vertex 3.40903 -2.27784 0
      vertex 5.68579 -1.41421 0
    endloop
  endfacet
  facet normal 0 -0 -1
    outer loop
      vertex 3.40903 -2.27784 0
      vertex 6.33463 -1.84776 0
      vertex 2.89914 -2.89914 0
    endloop
  endfacet
  facet normal 0 0 -1
    outer loop
      vertex 2.52571 -6.0976 0
      vertex 2.27784 -3.40903 0
      vertex 2.89914 -2.89914 0
    endloop
  endfacet
  facet normal 0 0 -1
    outer loop
      vertex 2.52571 -6.0976 0
      vertex 1.569 -3.78791 0
      vertex 2.27784 -3.40903 0
    endloop
  endfacet
  facet normal 0 0 -1
    outer loop
      vertex 1.2876 -6.47318 0
      vertex 1.569 -3.78791 0
      vertex 2.52571 -6.0976 0
    endloop
  endfacet
  facet normal 0 0 -1
    outer loop
      vertex 1.2876 -6.47318 0
      vertex 0.79987 -4.02122 0
      vertex 1.569 -3.78791 0
    endloop
  endfacet
  facet normal 0 0 -1
    outer loop
      vertex 0 -6.6 0
      vertex 0.79987 -4.02122 0
      vertex 1.2876 -6.47318 0
    endloop
  endfacet
  facet normal 0 0 -1
    outer loop
      vertex 0 -6.6 0
      vertex 0 -4.1 0
      vertex 0.79987 -4.02122 0
    endloop
  endfacet
  facet normal 0 0 -1
    outer loop
      vertex 0 -6.6 0
      vertex -0.79987 -4.02122 0
      vertex 0 -4.1 0
    endloop
  endfacet
  facet normal 0 0 -1
    outer loop
      vertex -1.2876 -6.47318 0
      vertex -0.79987 -4.02122 0
      vertex 0 -6.6 0
    endloop
  endfacet
  facet normal 0 0 -1
    outer loop
      vertex -1.2876 -6.47318 0
      vertex -1.569 -3.78791 0
      vertex -0.79987 -4.02122 0
    endloop
  endfacet
  facet normal 0 0 -1
    outer loop
      vertex -2.52571 -6.0976 0
      vertex -1.569 -3.78791 0
      vertex -1.2876 -6.47318 0
    endloop
  endfacet
  facet normal -0 0 -1
    outer loop
      vertex -1.569 -3.78791 0
      vertex -2.52571 -6.0976 0
      vertex -2.27784 -3.40903 0
    endloop
  endfacet
  facet normal 0 0 -1
    outer loop
      vertex -3.66676 -5.4877 0
      vertex -2.27784 -3.40903 0
      vertex -2.52571 -6.0976 0
    endloop
  endfacet
  facet normal -0 0 -1
    outer loop
      vertex -2.27784 -3.40903 0
      vertex -3.66676 -5.4877 0
      vertex -2.89914 -2.89914 0
    endloop
  endfacet
  facet normal 0 0 -1
    outer loop
      vertex -4.6669 -4.6669 0
      vertex -2.89914 -2.89914 0
      vertex -3.66676 -5.4877 0
    endloop
  endfacet
  facet normal -0 0 -1
    outer loop
      vertex -2.89914 -2.89914 0
      vertex -4.6669 -4.6669 0
      vertex -3.40903 -2.27784 0
    endloop
  endfacet
  facet normal 0 0 -1
    outer loop
      vertex -5.4877 -3.66676 0
      vertex -3.40903 -2.27784 0
      vertex -4.6669 -4.6669 0
    endloop
  endfacet
  facet normal -0 0 -1
    outer loop
      vertex -3.40903 -2.27784 0
      vertex -5.4877 -3.66676 0
      vertex -3.78791 -1.569 0
    endloop
  endfacet
  facet normal 0 0 -1
    outer loop
      vertex -6.0976 -2.52571 0
      vertex -3.78791 -1.569 0
      vertex -5.4877 -3.66676 0
    endloop
  endfacet
  facet normal 0 0 -1
    outer loop
      vertex 8.82234 1 0
      vertex 11.2575 1.72207 0
      vertex 11.4765 1 0
    endloop
  endfacet
  facet normal -0 0 -1
    outer loop
      vertex 11.2575 1.72207 0
      vertex 8.82234 1 0
      vertex 10.8416 2.50007 0
    endloop
  endfacet
  facet normal 0 0 -1
    outer loop
      vertex 8.76294 1.11114 0
      vertex 10.8416 2.50007 0
      vertex 8.82234 1 0
    endloop
  endfacet
  facet normal -0 0 -1
    outer loop
      vertex 10.8416 2.50007 0
      vertex 8.76294 1.11114 0
      vertex 10.282 3.18198 0
    endloop
  endfacet
  facet normal 0 0 -1
    outer loop
      vertex 8.51421 1.41421 0
      vertex 10.282 3.18198 0
      vertex 8.76294 1.11114 0
    endloop
  endfacet
  facet normal -0 0 -1
    outer loop
      vertex 10.282 3.18198 0
      vertex 8.51421 1.41421 0
      vertex 9.60007 3.74161 0
    endloop
  endfacet
  facet normal 0 0 -1
    outer loop
      vertex 8.21114 1.66294 0
      vertex 9.60007 3.74161 0
      vertex 8.51421 1.41421 0
    endloop
  endfacet
  facet normal -0 0 -1
    outer loop
      vertex 9.60007 3.74161 0
      vertex 8.21114 1.66294 0
      vertex 8.82207 4.15746 0
    endloop
  endfacet
  facet normal 0 0 -1
    outer loop
      vertex 7.86537 1.84776 0
      vertex 8.82207 4.15746 0
      vertex 8.21114 1.66294 0
    endloop
  endfacet
  facet normal 0 0 -1
    outer loop
      vertex 7.49018 1.96157 0
      vertex 8.82207 4.15746 0
      vertex 7.86537 1.84776 0
    endloop
  endfacet
  facet normal 0 0 -1
    outer loop
      vertex 7.1 2 0
      vertex 8.82207 4.15746 0
      vertex 7.49018 1.96157 0
    endloop
  endfacet
  facet normal 0 0 -1
    outer loop
      vertex 6.70982 1.96157 0
      vertex 8.82207 4.15746 0
      vertex 7.1 2 0
    endloop
  endfacet
  facet normal 0 0 -1
    outer loop
      vertex 2.52571 6.0976 0
      vertex 6.70982 1.96157 0
      vertex 6.33463 1.84776 0
    endloop
  endfacet
  facet normal 0 0 -1
    outer loop
      vertex 3.40903 2.27784 0
      vertex 6.33463 1.84776 0
      vertex 5.98886 1.66294 0
    endloop
  endfacet
  facet normal 0 0 -1
    outer loop
      vertex 3.40903 2.27784 0
      vertex 5.98886 1.66294 0
      vertex 5.68579 1.41421 0
    endloop
  endfacet
  facet normal 0 0 -1
    outer loop
      vertex 4.02118 0.799999 0
      vertex 5.43706 1.11114 0
      vertex 5.27075 0.799999 0
    endloop
  endfacet
  facet normal 0 0 -1
    outer loop
      vertex 3.78791 1.569 0
      vertex 5.43706 1.11114 0
      vertex 4.02118 0.799999 0
    endloop
  endfacet
  facet normal 0 0 -1
    outer loop
      vertex 5.43706 1.11114 0
      vertex 3.78791 1.569 0
      vertex 5.68579 1.41421 0
    endloop
  endfacet
  facet normal 0 0 -1
    outer loop
      vertex 3.40903 2.27784 0
      vertex 5.68579 1.41421 0
      vertex 3.78791 1.569 0
    endloop
  endfacet
  facet normal 0 0 -1
    outer loop
      vertex 6.33463 1.84776 0
      vertex 3.40903 2.27784 0
      vertex 2.89914 2.89914 0
    endloop
  endfacet
  facet normal 0 0 -1
    outer loop
      vertex 6.33463 1.84776 0
      vertex 2.89914 2.89914 0
      vertex 2.52571 6.0976 0
    endloop
  endfacet
  facet normal 0 0 -1
    outer loop
      vertex 6.70982 1.96157 0
      vertex 2.52571 6.0976 0
      vertex 8.82207 4.15746 0
    endloop
  endfacet
  facet normal 0 0 -1
    outer loop
      vertex 2.27784 3.40903 0
      vertex 2.52571 6.0976 0
      vertex 2.89914 2.89914 0
    endloop
  endfacet
  facet normal 0 0 -1
    outer loop
      vertex 1.569 3.78791 0
      vertex 2.52571 6.0976 0
      vertex 2.27784 3.40903 0
    endloop
  endfacet
  facet normal 0 0 -1
    outer loop
      vertex 1.569 3.78791 0
      vertex 1.2876 6.47318 0
      vertex 2.52571 6.0976 0
    endloop
  endfacet
  facet normal 0 0 -1
    outer loop
      vertex 0.79987 4.02122 0
      vertex 1.2876 6.47318 0
      vertex 1.569 3.78791 0
    endloop
  endfacet
  facet normal 0 0 -1
    outer loop
      vertex 0 4.1 0
      vertex 1.2876 6.47318 0
      vertex 0.79987 4.02122 0
    endloop
  endfacet
  facet normal 0 0 -1
    outer loop
      vertex 0 4.1 0
      vertex 0 6.6 0
      vertex 1.2876 6.47318 0
    endloop
  endfacet
  facet normal 0 0 -1
    outer loop
      vertex -0.79987 4.02122 0
      vertex 0 6.6 0
      vertex 0 4.1 0
    endloop
  endfacet
  facet normal 0 0 -1
    outer loop
      vertex -0.79987 4.02122 0
      vertex -1.2876 6.47318 0
      vertex 0 6.6 0
    endloop
  endfacet
  facet normal 0 0 -1
    outer loop
      vertex -1.569 3.78791 0
      vertex -1.2876 6.47318 0
      vertex -0.79987 4.02122 0
    endloop
  endfacet
  facet normal 0 0 -1
    outer loop
      vertex -2.52571 6.0976 0
      vertex -1.569 3.78791 0
      vertex -2.27784 3.40903 0
    endloop
  endfacet
  facet normal 0 0 -1
    outer loop
      vertex -1.569 3.78791 0
      vertex -2.52571 6.0976 0
      vertex -1.2876 6.47318 0
    endloop
  endfacet
  facet normal 0 0 -1
    outer loop
      vertex -3.66676 5.4877 0
      vertex -2.27784 3.40903 0
      vertex -2.89914 2.89914 0
    endloop
  endfacet
  facet normal 0 0 -1
    outer loop
      vertex -4.6669 4.6669 0
      vertex -2.89914 2.89914 0
      vertex -3.40903 2.27784 0
    endloop
  endfacet
  facet normal 0 0 -1
    outer loop
      vertex -2.27784 3.40903 0
      vertex -3.66676 5.4877 0
      vertex -2.52571 6.0976 0
    endloop
  endfacet
  facet normal 0 0 -1
    outer loop
      vertex -5.4877 3.66676 0
      vertex -3.40903 2.27784 0
      vertex -3.78791 1.569 0
    endloop
  endfacet
  facet normal 0 0 -1
    outer loop
      vertex -6.0976 2.52571 0
      vertex -3.78791 1.569 0
      vertex -4.02122 0.79987 0
    endloop
  endfacet
  facet normal 0 0 -1
    outer loop
      vertex -6.47318 1.2876 0
      vertex -4.02122 0.79987 0
      vertex -4.1 0 0
    endloop
  endfacet
  facet normal -0 0 -1
    outer loop
      vertex -3.78791 -1.569 0
      vertex -6.0976 -2.52571 0
      vertex -4.02122 -0.79987 0
    endloop
  endfacet
  facet normal 0 0 -1
    outer loop
      vertex -2.89914 2.89914 0
      vertex -4.6669 4.6669 0
      vertex -3.66676 5.4877 0
    endloop
  endfacet
  facet normal 0 0 -1
    outer loop
      vertex -6.47318 -1.2876 0
      vertex -4.02122 -0.79987 0
      vertex -6.0976 -2.52571 0
    endloop
  endfacet
  facet normal 0 0 -1
    outer loop
      vertex -3.40903 2.27784 0
      vertex -5.4877 3.66676 0
      vertex -4.6669 4.6669 0
    endloop
  endfacet
  facet normal -0 0 -1
    outer loop
      vertex -4.02122 -0.79987 0
      vertex -6.47318 -1.2876 0
      vertex -4.1 0 0
    endloop
  endfacet
  facet normal 0 0 -1
    outer loop
      vertex -3.78791 1.569 0
      vertex -6.0976 2.52571 0
      vertex -5.4877 3.66676 0
    endloop
  endfacet
  facet normal 0 0 -1
    outer loop
      vertex -6.6 0 0
      vertex -4.1 0 0
      vertex -6.47318 -1.2876 0
    endloop
  endfacet
  facet normal 0 0 -1
    outer loop
      vertex -4.02122 0.79987 0
      vertex -6.47318 1.2876 0
      vertex -6.0976 2.52571 0
    endloop
  endfacet
  facet normal 0 0 -1
    outer loop
      vertex -4.1 0 0
      vertex -6.6 0 0
      vertex -6.47318 1.2876 0
    endloop
  endfacet
  facet normal -0.95694 -0.290285 0
    outer loop
      vertex -6.0976 -2.52571 0
      vertex -6.47318 -1.2876 5
      vertex -6.47318 -1.2876 0
    endloop
  endfacet
  facet normal -0.95694 -0.290285 0
    outer loop
      vertex -6.47318 -1.2876 5
      vertex -6.0976 -2.52571 0
      vertex -6.0976 -2.52571 5
    endloop
  endfacet
  facet normal 0.95694 -0.290285 0
    outer loop
      vertex 11.2575 -1.72207 5
      vertex 11.4765 -1 0
      vertex 11.4765 -1 5
    endloop
  endfacet
  facet normal 0.95694 -0.290285 0
    outer loop
      vertex 11.4765 -1 0
      vertex 11.2575 -1.72207 5
      vertex 11.2575 -1.72207 0
    endloop
  endfacet
  facet normal -0.471397 -0.881921 0
    outer loop
      vertex -3.66676 -5.4877 0
      vertex -2.52571 -6.0976 5
      vertex -3.66676 -5.4877 5
    endloop
  endfacet
  facet normal -0.471397 -0.881921 -0
    outer loop
      vertex -2.52571 -6.0976 5
      vertex -3.66676 -5.4877 0
      vertex -2.52571 -6.0976 0
    endloop
  endfacet
  facet normal -0.773011 -0.634393 0
    outer loop
      vertex -4.6669 -4.6669 0
      vertex -5.4877 -3.66676 5
      vertex -5.4877 -3.66676 0
    endloop
  endfacet
  facet normal -0.773011 -0.634393 0
    outer loop
      vertex -5.4877 -3.66676 5
      vertex -4.6669 -4.6669 0
      vertex -4.6669 -4.6669 5
    endloop
  endfacet
  facet normal 0.294475 -0.955659 0
    outer loop
      vertex 2.52571 -6.0976 0
      vertex 8.82207 -4.15746 5
      vertex 2.52571 -6.0976 5
    endloop
  endfacet
  facet normal 0.294475 -0.955659 0
    outer loop
      vertex 8.82207 -4.15746 5
      vertex 2.52571 -6.0976 0
      vertex 8.82207 -4.15746 0
    endloop
  endfacet
  facet normal 0.881921 -0.471397 0
    outer loop
      vertex 10.8416 -2.50007 5
      vertex 11.2575 -1.72207 0
      vertex 11.2575 -1.72207 5
    endloop
  endfacet
  facet normal 0.881921 -0.471397 0
    outer loop
      vertex 11.2575 -1.72207 0
      vertex 10.8416 -2.50007 5
      vertex 10.8416 -2.50007 0
    endloop
  endfacet
  facet normal -0.881921 -0.471397 0
    outer loop
      vertex -5.4877 -3.66676 0
      vertex -6.0976 -2.52571 5
      vertex -6.0976 -2.52571 0
    endloop
  endfacet
  facet normal -0.881921 -0.471397 0
    outer loop
      vertex -6.0976 -2.52571 5
      vertex -5.4877 -3.66676 0
      vertex -5.4877 -3.66676 5
    endloop
  endfacet
  facet normal -0.0980169 0.995185 0
    outer loop
      vertex 0 6.6 0
      vertex -1.2876 6.47318 5
      vertex 0 6.6 5
    endloop
  endfacet
  facet normal -0.0980169 0.995185 0
    outer loop
      vertex -1.2876 6.47318 5
      vertex 0 6.6 0
      vertex -1.2876 6.47318 0
    endloop
  endfacet
  facet normal -0.634393 0.773011 0
    outer loop
      vertex -3.66676 5.4877 0
      vertex -4.6669 4.6669 5
      vertex -3.66676 5.4877 5
    endloop
  endfacet
  facet normal -0.634393 0.773011 0
    outer loop
      vertex -4.6669 4.6669 5
      vertex -3.66676 5.4877 0
      vertex -4.6669 4.6669 0
    endloop
  endfacet
  facet normal 0.634393 -0.773011 0
    outer loop
      vertex 9.60007 -3.74161 0
      vertex 10.282 -3.18198 5
      vertex 9.60007 -3.74161 5
    endloop
  endfacet
  facet normal 0.634393 -0.773011 0
    outer loop
      vertex 10.282 -3.18198 5
      vertex 9.60007 -3.74161 0
      vertex 10.282 -3.18198 0
    endloop
  endfacet
  facet normal 0.471397 -0.881921 0
    outer loop
      vertex 8.82207 -4.15746 0
      vertex 9.60007 -3.74161 5
      vertex 8.82207 -4.15746 5
    endloop
  endfacet
  facet normal 0.471397 -0.881921 0
    outer loop
      vertex 9.60007 -3.74161 5
      vertex 8.82207 -4.15746 0
      vertex 9.60007 -3.74161 0
    endloop
  endfacet
  facet normal 0.290285 -0.95694 0
    outer loop
      vertex 1.2876 -6.47318 0
      vertex 2.52571 -6.0976 5
      vertex 1.2876 -6.47318 5
    endloop
  endfacet
  facet normal 0.290285 -0.95694 0
    outer loop
      vertex 2.52571 -6.0976 5
      vertex 1.2876 -6.47318 0
      vertex 2.52571 -6.0976 0
    endloop
  endfacet
  facet normal -0.290285 -0.95694 0
    outer loop
      vertex -2.52571 -6.0976 0
      vertex -1.2876 -6.47318 5
      vertex -2.52571 -6.0976 5
    endloop
  endfacet
  facet normal -0.290285 -0.95694 -0
    outer loop
      vertex -1.2876 -6.47318 5
      vertex -2.52571 -6.0976 0
      vertex -1.2876 -6.47318 0
    endloop
  endfacet
  facet normal 0.0980169 -0.995185 0
    outer loop
      vertex 0 -6.6 0
      vertex 1.2876 -6.47318 5
      vertex 0 -6.6 5
    endloop
  endfacet
  facet normal 0.0980169 -0.995185 0
    outer loop
      vertex 1.2876 -6.47318 5
      vertex 0 -6.6 0
      vertex 1.2876 -6.47318 0
    endloop
  endfacet
  facet normal -0.0980169 -0.995185 0
    outer loop
      vertex -1.2876 -6.47318 0
      vertex 0 -6.6 5
      vertex -1.2876 -6.47318 5
    endloop
  endfacet
  facet normal -0.0980169 -0.995185 -0
    outer loop
      vertex 0 -6.6 5
      vertex -1.2876 -6.47318 0
      vertex 0 -6.6 0
    endloop
  endfacet
  facet normal -0.634393 -0.773011 0
    outer loop
      vertex -4.6669 -4.6669 0
      vertex -3.66676 -5.4877 5
      vertex -4.6669 -4.6669 5
    endloop
  endfacet
  facet normal -0.634393 -0.773011 -0
    outer loop
      vertex -3.66676 -5.4877 5
      vertex -4.6669 -4.6669 0
      vertex -3.66676 -5.4877 0
    endloop
  endfacet
  facet normal 0.0980169 0.995185 -0
    outer loop
      vertex 1.2876 6.47318 0
      vertex 0 6.6 5
      vertex 1.2876 6.47318 5
    endloop
  endfacet
  facet normal 0.0980169 0.995185 0
    outer loop
      vertex 0 6.6 5
      vertex 1.2876 6.47318 0
      vertex 0 6.6 0
    endloop
  endfacet
  facet normal 0.471397 0.881921 -0
    outer loop
      vertex 9.60007 3.74161 0
      vertex 8.82207 4.15746 5
      vertex 9.60007 3.74161 5
    endloop
  endfacet
  facet normal 0.471397 0.881921 0
    outer loop
      vertex 8.82207 4.15746 5
      vertex 9.60007 3.74161 0
      vertex 8.82207 4.15746 0
    endloop
  endfacet
  facet normal -0.290285 0.95694 0
    outer loop
      vertex -1.2876 6.47318 0
      vertex -2.52571 6.0976 5
      vertex -1.2876 6.47318 5
    endloop
  endfacet
  facet normal -0.290285 0.95694 0
    outer loop
      vertex -2.52571 6.0976 5
      vertex -1.2876 6.47318 0
      vertex -2.52571 6.0976 0
    endloop
  endfacet
  facet normal -0.471397 0.881921 0
    outer loop
      vertex -2.52571 6.0976 0
      vertex -3.66676 5.4877 5
      vertex -2.52571 6.0976 5
    endloop
  endfacet
  facet normal -0.471397 0.881921 0
    outer loop
      vertex -3.66676 5.4877 5
      vertex -2.52571 6.0976 0
      vertex -3.66676 5.4877 0
    endloop
  endfacet
  facet normal -0.995185 0.0980169 0
    outer loop
      vertex -6.6 0 0
      vertex -6.47318 1.2876 5
      vertex -6.47318 1.2876 0
    endloop
  endfacet
  facet normal -0.995185 0.0980169 0
    outer loop
      vertex -6.47318 1.2876 5
      vertex -6.6 0 0
      vertex -6.6 0 5
    endloop
  endfacet
  facet normal -0.95694 0.290285 0
    outer loop
      vertex -6.47318 1.2876 0
      vertex -6.0976 2.52571 5
      vertex -6.0976 2.52571 0
    endloop
  endfacet
  facet normal -0.95694 0.290285 0
    outer loop
      vertex -6.0976 2.52571 5
      vertex -6.47318 1.2876 0
      vertex -6.47318 1.2876 5
    endloop
  endfacet
  facet normal -0.995185 -0.0980169 0
    outer loop
      vertex -6.47318 -1.2876 0
      vertex -6.6 0 5
      vertex -6.6 0 0
    endloop
  endfacet
  facet normal -0.995185 -0.0980169 0
    outer loop
      vertex -6.6 0 5
      vertex -6.47318 -1.2876 0
      vertex -6.47318 -1.2876 5
    endloop
  endfacet
  facet normal 0 0 1
    outer loop
      vertex 8.82234 1 5
      vertex 11.2575 1.72207 5
      vertex 10.8416 2.50007 5
    endloop
  endfacet
  facet normal 0 0 1
    outer loop
      vertex 8.76294 1.11114 5
      vertex 10.8416 2.50007 5
      vertex 10.282 3.18198 5
    endloop
  endfacet
  facet normal 0 0 1
    outer loop
      vertex 8.51421 1.41421 5
      vertex 10.282 3.18198 5
      vertex 9.60007 3.74161 5
    endloop
  endfacet
  facet normal 0 0 1
    outer loop
      vertex 10.8416 2.50007 5
      vertex 8.76294 1.11114 5
      vertex 8.82234 1 5
    endloop
  endfacet
  facet normal 0 0 1
    outer loop
      vertex 8.21114 1.66294 5
      vertex 9.60007 3.74161 5
      vertex 8.82207 4.15746 5
    endloop
  endfacet
  facet normal 0 0 1
    outer loop
      vertex 11.2575 1.72207 5
      vertex 8.82234 1 5
      vertex 11.4765 1 5
    endloop
  endfacet
  facet normal 0 0 1
    outer loop
      vertex 10.282 3.18198 5
      vertex 8.51421 1.41421 5
      vertex 8.76294 1.11114 5
    endloop
  endfacet
  facet normal 0 0 1
    outer loop
      vertex 9.60007 3.74161 5
      vertex 8.21114 1.66294 5
      vertex 8.51421 1.41421 5
    endloop
  endfacet
  facet normal 0 0 1
    outer loop
      vertex 8.82207 4.15746 5
      vertex 7.86537 1.84776 5
      vertex 8.21114 1.66294 5
    endloop
  endfacet
  facet normal 0 0 1
    outer loop
      vertex 8.82207 4.15746 5
      vertex 7.49018 1.96157 5
      vertex 7.86537 1.84776 5
    endloop
  endfacet
  facet normal 0 0 1
    outer loop
      vertex 8.82207 4.15746 5
      vertex 7.1 2 5
      vertex 7.49018 1.96157 5
    endloop
  endfacet
  facet normal 0 0 1
    outer loop
      vertex 8.82207 4.15746 5
      vertex 6.70982 1.96157 5
      vertex 7.1 2 5
    endloop
  endfacet
  facet normal 0 0 1
    outer loop
      vertex 2.52571 6.0976 5
      vertex 6.70982 1.96157 5
      vertex 8.82207 4.15746 5
    endloop
  endfacet
  facet normal 0 0 1
    outer loop
      vertex 6.70982 1.96157 5
      vertex 2.52571 6.0976 5
      vertex 6.33463 1.84776 5
    endloop
  endfacet
  facet normal -0 -0 1
    outer loop
      vertex 2.89914 2.89914 5
      vertex 6.33463 1.84776 5
      vertex 2.52571 6.0976 5
    endloop
  endfacet
  facet normal 0 0 1
    outer loop
      vertex 5.43706 1.11114 5
      vertex 4.02118 0.799999 5
      vertex 5.27075 0.799999 5
    endloop
  endfacet
  facet normal 0 0 1
    outer loop
      vertex 3.78791 1.569 5
      vertex 5.43706 1.11114 5
      vertex 5.68579 1.41421 5
    endloop
  endfacet
  facet normal 0 0 1
    outer loop
      vertex 6.33463 1.84776 5
      vertex 3.40903 2.27784 5
      vertex 5.98886 1.66294 5
    endloop
  endfacet
  facet normal 0 0 1
    outer loop
      vertex 5.43706 1.11114 5
      vertex 3.78791 1.569 5
      vertex 4.02118 0.799999 5
    endloop
  endfacet
  facet normal 0 0 1
    outer loop
      vertex 5.68579 1.41421 5
      vertex 3.40903 2.27784 5
      vertex 3.78791 1.569 5
    endloop
  endfacet
  facet normal 0 0 1
    outer loop
      vertex 5.98886 1.66294 5
      vertex 3.40903 2.27784 5
      vertex 5.68579 1.41421 5
    endloop
  endfacet
  facet normal -0 -0 1
    outer loop
      vertex 3.40903 2.27784 5
      vertex 6.33463 1.84776 5
      vertex 2.89914 2.89914 5
    endloop
  endfacet
  facet normal 0 0 1
    outer loop
      vertex 2.52571 6.0976 5
      vertex 2.27784 3.40903 5
      vertex 2.89914 2.89914 5
    endloop
  endfacet
  facet normal 0 0 1
    outer loop
      vertex 2.52571 6.0976 5
      vertex 1.569 3.78791 5
      vertex 2.27784 3.40903 5
    endloop
  endfacet
  facet normal 0 0 1
    outer loop
      vertex 1.2876 6.47318 5
      vertex 1.569 3.78791 5
      vertex 2.52571 6.0976 5
    endloop
  endfacet
  facet normal 0 0 1
    outer loop
      vertex 1.2876 6.47318 5
      vertex 0.79987 4.02122 5
      vertex 1.569 3.78791 5
    endloop
  endfacet
  facet normal 0 0 1
    outer loop
      vertex 0 6.6 5
      vertex 0.79987 4.02122 5
      vertex 1.2876 6.47318 5
    endloop
  endfacet
  facet normal 0 0 1
    outer loop
      vertex 0 6.6 5
      vertex 0 4.1 5
      vertex 0.79987 4.02122 5
    endloop
  endfacet
  facet normal 0 0 1
    outer loop
      vertex 0 6.6 5
      vertex -0.79987 4.02122 5
      vertex 0 4.1 5
    endloop
  endfacet
  facet normal -0 0 1
    outer loop
      vertex -1.2876 6.47318 5
      vertex -0.79987 4.02122 5
      vertex 0 6.6 5
    endloop
  endfacet
  facet normal 0 0 1
    outer loop
      vertex -1.2876 6.47318 5
      vertex -1.569 3.78791 5
      vertex -0.79987 4.02122 5
    endloop
  endfacet
  facet normal -0 0 1
    outer loop
      vertex -2.52571 6.0976 5
      vertex -1.569 3.78791 5
      vertex -1.2876 6.47318 5
    endloop
  endfacet
  facet normal 0 0 1
    outer loop
      vertex -1.569 3.78791 5
      vertex -2.52571 6.0976 5
      vertex -2.27784 3.40903 5
    endloop
  endfacet
  facet normal -0 0 1
    outer loop
      vertex -3.66676 5.4877 5
      vertex -2.27784 3.40903 5
      vertex -2.52571 6.0976 5
    endloop
  endfacet
  facet normal 0 0 1
    outer loop
      vertex -2.27784 3.40903 5
      vertex -3.66676 5.4877 5
      vertex -2.89914 2.89914 5
    endloop
  endfacet
  facet normal -0 0 1
    outer loop
      vertex -4.6669 4.6669 5
      vertex -2.89914 2.89914 5
      vertex -3.66676 5.4877 5
    endloop
  endfacet
  facet normal 0 0 1
    outer loop
      vertex -2.89914 2.89914 5
      vertex -4.6669 4.6669 5
      vertex -3.40903 2.27784 5
    endloop
  endfacet
  facet normal -0 0 1
    outer loop
      vertex -5.4877 3.66676 5
      vertex -3.40903 2.27784 5
      vertex -4.6669 4.6669 5
    endloop
  endfacet
  facet normal 0 0 1
    outer loop
      vertex -3.40903 2.27784 5
      vertex -5.4877 3.66676 5
      vertex -3.78791 1.569 5
    endloop
  endfacet
  facet normal -0 0 1
    outer loop
      vertex -6.0976 2.52571 5
      vertex -3.78791 1.569 5
      vertex -5.4877 3.66676 5
    endloop
  endfacet
  facet normal -0 0 1
    outer loop
      vertex 8.82234 -1 5
      vertex 11.2575 -1.72207 5
      vertex 11.4765 -1 5
    endloop
  endfacet
  facet normal 0 0 1
    outer loop
      vertex 11.2575 -1.72207 5
      vertex 8.82234 -1 5
      vertex 10.8416 -2.50007 5
    endloop
  endfacet
  facet normal -0 0 1
    outer loop
      vertex 8.76294 -1.11114 5
      vertex 10.8416 -2.50007 5
      vertex 8.82234 -1 5
    endloop
  endfacet
  facet normal 0 0 1
    outer loop
      vertex 10.8416 -2.50007 5
      vertex 8.76294 -1.11114 5
      vertex 10.282 -3.18198 5
    endloop
  endfacet
  facet normal -0 0 1
    outer loop
      vertex 8.51421 -1.41421 5
      vertex 10.282 -3.18198 5
      vertex 8.76294 -1.11114 5
    endloop
  endfacet
  facet normal 0 0 1
    outer loop
      vertex 10.282 -3.18198 5
      vertex 8.51421 -1.41421 5
      vertex 9.60007 -3.74161 5
    endloop
  endfacet
  facet normal -0 0 1
    outer loop
      vertex 8.21114 -1.66294 5
      vertex 9.60007 -3.74161 5
      vertex 8.51421 -1.41421 5
    endloop
  endfacet
  facet normal 0 0 1
    outer loop
      vertex 9.60007 -3.74161 5
      vertex 8.21114 -1.66294 5
      vertex 8.82207 -4.15746 5
    endloop
  endfacet
  facet normal -0 0 1
    outer loop
      vertex 7.86537 -1.84776 5
      vertex 8.82207 -4.15746 5
      vertex 8.21114 -1.66294 5
    endloop
  endfacet
  facet normal -0 0 1
    outer loop
      vertex 7.49018 -1.96157 5
      vertex 8.82207 -4.15746 5
      vertex 7.86537 -1.84776 5
    endloop
  endfacet
  facet normal -0 0 1
    outer loop
      vertex 7.1 -2 5
      vertex 8.82207 -4.15746 5
      vertex 7.49018 -1.96157 5
    endloop
  endfacet
  facet normal 0 0 1
    outer loop
      vertex 6.70982 -1.96157 5
      vertex 8.82207 -4.15746 5
      vertex 7.1 -2 5
    endloop
  endfacet
  facet normal 0 0 1
    outer loop
      vertex 2.52571 -6.0976 5
      vertex 6.70982 -1.96157 5
      vertex 6.33463 -1.84776 5
    endloop
  endfacet
  facet normal 0 0 1
    outer loop
      vertex 3.40903 -2.27784 5
      vertex 6.33463 -1.84776 5
      vertex 5.98886 -1.66294 5
    endloop
  endfacet
  facet normal 0 0 1
    outer loop
      vertex 3.40903 -2.27784 5
      vertex 5.98886 -1.66294 5
      vertex 5.68579 -1.41421 5
    endloop
  endfacet
  facet normal -0 0 1
    outer loop
      vertex 4.02118 -0.799999 5
      vertex 5.43706 -1.11114 5
      vertex 5.27075 -0.799999 5
    endloop
  endfacet
  facet normal 0 0 1
    outer loop
      vertex 3.78791 -1.569 5
      vertex 5.43706 -1.11114 5
      vertex 4.02118 -0.799999 5
    endloop
  endfacet
  facet normal 0 0 1
    outer loop
      vertex 5.43706 -1.11114 5
      vertex 3.78791 -1.569 5
      vertex 5.68579 -1.41421 5
    endloop
  endfacet
  facet normal 0 0 1
    outer loop
      vertex 3.40903 -2.27784 5
      vertex 5.68579 -1.41421 5
      vertex 3.78791 -1.569 5
    endloop
  endfacet
  facet normal 0 0 1
    outer loop
      vertex 6.33463 -1.84776 5
      vertex 3.40903 -2.27784 5
      vertex 2.89914 -2.89914 5
    endloop
  endfacet
  facet normal 0 0 1
    outer loop
      vertex 6.33463 -1.84776 5
      vertex 2.89914 -2.89914 5
      vertex 2.52571 -6.0976 5
    endloop
  endfacet
  facet normal 0 0 1
    outer loop
      vertex 6.70982 -1.96157 5
      vertex 2.52571 -6.0976 5
      vertex 8.82207 -4.15746 5
    endloop
  endfacet
  facet normal -0 0 1
    outer loop
      vertex 2.27784 -3.40903 5
      vertex 2.52571 -6.0976 5
      vertex 2.89914 -2.89914 5
    endloop
  endfacet
  facet normal -0 0 1
    outer loop
      vertex 1.569 -3.78791 5
      vertex 2.52571 -6.0976 5
      vertex 2.27784 -3.40903 5
    endloop
  endfacet
  facet normal 0 0 1
    outer loop
      vertex 1.569 -3.78791 5
      vertex 1.2876 -6.47318 5
      vertex 2.52571 -6.0976 5
    endloop
  endfacet
  facet normal -0 0 1
    outer loop
      vertex 0.79987 -4.02122 5
      vertex 1.2876 -6.47318 5
      vertex 1.569 -3.78791 5
    endloop
  endfacet
  facet normal -0 0 1
    outer loop
      vertex 0 -4.1 5
      vertex 1.2876 -6.47318 5
      vertex 0.79987 -4.02122 5
    endloop
  endfacet
  facet normal 0 0 1
    outer loop
      vertex 0 -4.1 5
      vertex 0 -6.6 5
      vertex 1.2876 -6.47318 5
    endloop
  endfacet
  facet normal 0 0 1
    outer loop
      vertex -0.79987 -4.02122 5
      vertex 0 -6.6 5
      vertex 0 -4.1 5
    endloop
  endfacet
  facet normal 0 0 1
    outer loop
      vertex -0.79987 -4.02122 5
      vertex -1.2876 -6.47318 5
      vertex 0 -6.6 5
    endloop
  endfacet
  facet normal 0 0 1
    outer loop
      vertex -1.569 -3.78791 5
      vertex -1.2876 -6.47318 5
      vertex -0.79987 -4.02122 5
    endloop
  endfacet
  facet normal 0 0 1
    outer loop
      vertex -2.52571 -6.0976 5
      vertex -1.569 -3.78791 5
      vertex -2.27784 -3.40903 5
    endloop
  endfacet
  facet normal 0 0 1
    outer loop
      vertex -1.569 -3.78791 5
      vertex -2.52571 -6.0976 5
      vertex -1.2876 -6.47318 5
    endloop
  endfacet
  facet normal 0 0 1
    outer loop
      vertex -3.66676 -5.4877 5
      vertex -2.27784 -3.40903 5
      vertex -2.89914 -2.89914 5
    endloop
  endfacet
  facet normal 0 0 1
    outer loop
      vertex -4.6669 -4.6669 5
      vertex -2.89914 -2.89914 5
      vertex -3.40903 -2.27784 5
    endloop
  endfacet
  facet normal 0 0 1
    outer loop
      vertex -2.27784 -3.40903 5
      vertex -3.66676 -5.4877 5
      vertex -2.52571 -6.0976 5
    endloop
  endfacet
  facet normal 0 0 1
    outer loop
      vertex -5.4877 -3.66676 5
      vertex -3.40903 -2.27784 5
      vertex -3.78791 -1.569 5
    endloop
  endfacet
  facet normal 0 0 1
    outer loop
      vertex -6.0976 -2.52571 5
      vertex -3.78791 -1.569 5
      vertex -4.02122 -0.79987 5
    endloop
  endfacet
  facet normal 0 0 1
    outer loop
      vertex -6.47318 -1.2876 5
      vertex -4.02122 -0.79987 5
      vertex -4.1 0 5
    endloop
  endfacet
  facet normal 0 0 1
    outer loop
      vertex -3.78791 1.569 5
      vertex -6.0976 2.52571 5
      vertex -4.02122 0.79987 5
    endloop
  endfacet
  facet normal 0 0 1
    outer loop
      vertex -2.89914 -2.89914 5
      vertex -4.6669 -4.6669 5
      vertex -3.66676 -5.4877 5
    endloop
  endfacet
  facet normal -0 0 1
    outer loop
      vertex -6.47318 1.2876 5
      vertex -4.02122 0.79987 5
      vertex -6.0976 2.52571 5
    endloop
  endfacet
  facet normal 0 0 1
    outer loop
      vertex -3.40903 -2.27784 5
      vertex -5.4877 -3.66676 5
      vertex -4.6669 -4.6669 5
    endloop
  endfacet
  facet normal 0 0 1
    outer loop
      vertex -4.02122 0.79987 5
      vertex -6.47318 1.2876 5
      vertex -4.1 0 5
    endloop
  endfacet
  facet normal 0 0 1
    outer loop
      vertex -3.78791 -1.569 5
      vertex -6.0976 -2.52571 5
      vertex -5.4877 -3.66676 5
    endloop
  endfacet
  facet normal 0 0 1
    outer loop
      vertex -6.6 0 5
      vertex -4.1 0 5
      vertex -6.47318 1.2876 5
    endloop
  endfacet
  facet normal 0 0 1
    outer loop
      vertex -4.02122 -0.79987 5
      vertex -6.47318 -1.2876 5
      vertex -6.0976 -2.52571 5
    endloop
  endfacet
  facet normal 0 0 1
    outer loop
      vertex -4.1 0 5
      vertex -6.6 0 5
      vertex -6.47318 -1.2876 5
    endloop
  endfacet
  facet normal -0.881921 0.471397 0
    outer loop
      vertex -6.0976 2.52571 0
      vertex -5.4877 3.66676 5
      vertex -5.4877 3.66676 0
    endloop
  endfacet
  facet normal -0.881921 0.471397 0
    outer loop
      vertex -5.4877 3.66676 5
      vertex -6.0976 2.52571 0
      vertex -6.0976 2.52571 5
    endloop
  endfacet
  facet normal -0.773011 0.634393 0
    outer loop
      vertex -5.4877 3.66676 0
      vertex -4.6669 4.6669 5
      vertex -4.6669 4.6669 0
    endloop
  endfacet
  facet normal -0.773011 0.634393 0
    outer loop
      vertex -4.6669 4.6669 5
      vertex -5.4877 3.66676 0
      vertex -5.4877 3.66676 5
    endloop
  endfacet
  facet normal 0.773011 -0.634393 0
    outer loop
      vertex 10.282 -3.18198 5
      vertex 10.8416 -2.50007 0
      vertex 10.8416 -2.50007 5
    endloop
  endfacet
  facet normal 0.773011 -0.634393 0
    outer loop
      vertex 10.8416 -2.50007 0
      vertex 10.282 -3.18198 5
      vertex 10.282 -3.18198 0
    endloop
  endfacet
  facet normal 0.290285 0.95694 -0
    outer loop
      vertex 2.52571 6.0976 0
      vertex 1.2876 6.47318 5
      vertex 2.52571 6.0976 5
    endloop
  endfacet
  facet normal 0.290285 0.95694 0
    outer loop
      vertex 1.2876 6.47318 5
      vertex 2.52571 6.0976 0
      vertex 1.2876 6.47318 0
    endloop
  endfacet
  facet normal 0.294475 0.955659 -0
    outer loop
      vertex 8.82207 4.15746 0
      vertex 2.52571 6.0976 5
      vertex 8.82207 4.15746 5
    endloop
  endfacet
  facet normal 0.294475 0.955659 0
    outer loop
      vertex 2.52571 6.0976 5
      vertex 8.82207 4.15746 0
      vertex 2.52571 6.0976 0
    endloop
  endfacet
  facet normal 0.773011 0.634393 0
    outer loop
      vertex 10.8416 2.50007 5
      vertex 10.282 3.18198 0
      vertex 10.282 3.18198 5
    endloop
  endfacet
  facet normal 0.773011 0.634393 0
    outer loop
      vertex 10.282 3.18198 0
      vertex 10.8416 2.50007 5
      vertex 10.8416 2.50007 0
    endloop
  endfacet
  facet normal 0.95694 0.290285 0
    outer loop
      vertex 11.4765 1 5
      vertex 11.2575 1.72207 0
      vertex 11.2575 1.72207 5
    endloop
  endfacet
  facet normal 0.95694 0.290285 0
    outer loop
      vertex 11.2575 1.72207 0
      vertex 11.4765 1 5
      vertex 11.4765 1 0
    endloop
  endfacet
  facet normal 0.634393 0.773011 -0
    outer loop
      vertex 10.282 3.18198 0
      vertex 9.60007 3.74161 5
      vertex 10.282 3.18198 5
    endloop
  endfacet
  facet normal 0.634393 0.773011 0
    outer loop
      vertex 9.60007 3.74161 5
      vertex 10.282 3.18198 0
      vertex 9.60007 3.74161 0
    endloop
  endfacet
  facet normal 0.881921 0.471397 0
    outer loop
      vertex 11.2575 1.72207 5
      vertex 10.8416 2.50007 0
      vertex 10.8416 2.50007 5
    endloop
  endfacet
  facet normal 0.881921 0.471397 0
    outer loop
      vertex 10.8416 2.50007 0
      vertex 11.2575 1.72207 5
      vertex 11.2575 1.72207 0
    endloop
  endfacet
  facet normal 0.995185 -0.098017 0
    outer loop
      vertex -4.1 0 5
      vertex -4.02122 0.79987 0
      vertex -4.02122 0.79987 5
    endloop
  endfacet
  facet normal 0.995185 -0.098017 0
    outer loop
      vertex -4.02122 0.79987 0
      vertex -4.1 0 5
      vertex -4.1 0 0
    endloop
  endfacet
  facet normal 0.098017 -0.995185 0
    outer loop
      vertex -0.79987 4.02122 0
      vertex 0 4.1 5
      vertex -0.79987 4.02122 5
    endloop
  endfacet
  facet normal 0.098017 -0.995185 0
    outer loop
      vertex 0 4.1 5
      vertex -0.79987 4.02122 0
      vertex 0 4.1 0
    endloop
  endfacet
  facet normal -0.098017 0.995185 0
    outer loop
      vertex 0.79987 -4.02122 0
      vertex 0 -4.1 5
      vertex 0.79987 -4.02122 5
    endloop
  endfacet
  facet normal -0.098017 0.995185 0
    outer loop
      vertex 0 -4.1 5
      vertex 0.79987 -4.02122 0
      vertex 0 -4.1 0
    endloop
  endfacet
  facet normal -0.634393 -0.77301 0
    outer loop
      vertex 2.27784 3.40903 0
      vertex 2.89914 2.89914 5
      vertex 2.27784 3.40903 5
    endloop
  endfacet
  facet normal -0.634393 -0.77301 -0
    outer loop
      vertex 2.89914 2.89914 5
      vertex 2.27784 3.40903 0
      vertex 2.89914 2.89914 0
    endloop
  endfacet
  facet normal 0.77301 -0.634393 0
    outer loop
      vertex -3.40903 2.27784 5
      vertex -2.89914 2.89914 0
      vertex -2.89914 2.89914 5
    endloop
  endfacet
  facet normal 0.77301 -0.634393 0
    outer loop
      vertex -2.89914 2.89914 0
      vertex -3.40903 2.27784 5
      vertex -3.40903 2.27784 0
    endloop
  endfacet
  facet normal 0.471396 -0.881922 0
    outer loop
      vertex -2.27784 3.40903 0
      vertex -1.569 3.78791 5
      vertex -2.27784 3.40903 5
    endloop
  endfacet
  facet normal 0.471396 -0.881922 0
    outer loop
      vertex -1.569 3.78791 5
      vertex -2.27784 3.40903 0
      vertex -1.569 3.78791 0
    endloop
  endfacet
  facet normal -0.881922 0.471396 0
    outer loop
      vertex 3.40903 -2.27784 0
      vertex 3.78791 -1.569 5
      vertex 3.78791 -1.569 0
    endloop
  endfacet
  facet normal -0.881922 0.471396 0
    outer loop
      vertex 3.78791 -1.569 5
      vertex 3.40903 -2.27784 0
      vertex 3.40903 -2.27784 5
    endloop
  endfacet
  facet normal -0.881922 -0.471396 0
    outer loop
      vertex 3.78791 1.569 0
      vertex 3.40903 2.27784 5
      vertex 3.40903 2.27784 0
    endloop
  endfacet
  facet normal -0.881922 -0.471396 0
    outer loop
      vertex 3.40903 2.27784 5
      vertex 3.78791 1.569 0
      vertex 3.78791 1.569 5
    endloop
  endfacet
  facet normal -0.95694 -0.290284 0
    outer loop
      vertex 4.02118 0.799999 0
      vertex 3.78791 1.569 5
      vertex 3.78791 1.569 0
    endloop
  endfacet
  facet normal -0.95694 -0.290284 0
    outer loop
      vertex 3.78791 1.569 5
      vertex 4.02118 0.799999 0
      vertex 4.02118 0.799999 5
    endloop
  endfacet
  facet normal -0.77301 -0.634393 0
    outer loop
      vertex 3.40903 2.27784 0
      vertex 2.89914 2.89914 5
      vertex 2.89914 2.89914 0
    endloop
  endfacet
  facet normal -0.77301 -0.634393 0
    outer loop
      vertex 2.89914 2.89914 5
      vertex 3.40903 2.27784 0
      vertex 3.40903 2.27784 5
    endloop
  endfacet
  facet normal -0.290285 -0.95694 0
    outer loop
      vertex 0.79987 4.02122 0
      vertex 1.569 3.78791 5
      vertex 0.79987 4.02122 5
    endloop
  endfacet
  facet normal -0.290285 -0.95694 -0
    outer loop
      vertex 1.569 3.78791 5
      vertex 0.79987 4.02122 0
      vertex 1.569 3.78791 0
    endloop
  endfacet
  facet normal -0.098017 -0.995185 0
    outer loop
      vertex 0 4.1 0
      vertex 0.79987 4.02122 5
      vertex 0 4.1 5
    endloop
  endfacet
  facet normal -0.098017 -0.995185 -0
    outer loop
      vertex 0.79987 4.02122 5
      vertex 0 4.1 0
      vertex 0.79987 4.02122 0
    endloop
  endfacet
  facet normal -0.471396 -0.881922 0
    outer loop
      vertex 1.569 3.78791 0
      vertex 2.27784 3.40903 5
      vertex 1.569 3.78791 5
    endloop
  endfacet
  facet normal -0.471396 -0.881922 -0
    outer loop
      vertex 2.27784 3.40903 5
      vertex 1.569 3.78791 0
      vertex 2.27784 3.40903 0
    endloop
  endfacet
  facet normal 0.881922 -0.471396 0
    outer loop
      vertex -3.78791 1.569 5
      vertex -3.40903 2.27784 0
      vertex -3.40903 2.27784 5
    endloop
  endfacet
  facet normal 0.881922 -0.471396 0
    outer loop
      vertex -3.40903 2.27784 0
      vertex -3.78791 1.569 5
      vertex -3.78791 1.569 0
    endloop
  endfacet
  facet normal 0.95694 -0.290285 0
    outer loop
      vertex -4.02122 0.79987 5
      vertex -3.78791 1.569 0
      vertex -3.78791 1.569 5
    endloop
  endfacet
  facet normal 0.95694 -0.290285 0
    outer loop
      vertex -3.78791 1.569 0
      vertex -4.02122 0.79987 5
      vertex -4.02122 0.79987 0
    endloop
  endfacet
  facet normal 0.634393 -0.77301 0
    outer loop
      vertex -2.89914 2.89914 0
      vertex -2.27784 3.40903 5
      vertex -2.89914 2.89914 5
    endloop
  endfacet
  facet normal 0.634393 -0.77301 0
    outer loop
      vertex -2.27784 3.40903 5
      vertex -2.89914 2.89914 0
      vertex -2.27784 3.40903 0
    endloop
  endfacet
  facet normal 0.290285 -0.95694 0
    outer loop
      vertex -1.569 3.78791 0
      vertex -0.79987 4.02122 5
      vertex -1.569 3.78791 5
    endloop
  endfacet
  facet normal 0.290285 -0.95694 0
    outer loop
      vertex -0.79987 4.02122 5
      vertex -1.569 3.78791 0
      vertex -0.79987 4.02122 0
    endloop
  endfacet
  facet normal 0.77301 0.634393 0
    outer loop
      vertex -2.89914 -2.89914 5
      vertex -3.40903 -2.27784 0
      vertex -3.40903 -2.27784 5
    endloop
  endfacet
  facet normal 0.77301 0.634393 0
    outer loop
      vertex -3.40903 -2.27784 0
      vertex -2.89914 -2.89914 5
      vertex -2.89914 -2.89914 0
    endloop
  endfacet
  facet normal -0.95694 0.290284 0
    outer loop
      vertex 3.78791 -1.569 0
      vertex 4.02118 -0.799999 5
      vertex 4.02118 -0.799999 0
    endloop
  endfacet
  facet normal -0.95694 0.290284 0
    outer loop
      vertex 4.02118 -0.799999 5
      vertex 3.78791 -1.569 0
      vertex 3.78791 -1.569 5
    endloop
  endfacet
  facet normal -0.634393 0.77301 0
    outer loop
      vertex 2.89914 -2.89914 0
      vertex 2.27784 -3.40903 5
      vertex 2.89914 -2.89914 5
    endloop
  endfacet
  facet normal -0.634393 0.77301 0
    outer loop
      vertex 2.27784 -3.40903 5
      vertex 2.89914 -2.89914 0
      vertex 2.27784 -3.40903 0
    endloop
  endfacet
  facet normal 0.471396 0.881922 -0
    outer loop
      vertex -1.569 -3.78791 0
      vertex -2.27784 -3.40903 5
      vertex -1.569 -3.78791 5
    endloop
  endfacet
  facet normal 0.471396 0.881922 0
    outer loop
      vertex -2.27784 -3.40903 5
      vertex -1.569 -3.78791 0
      vertex -2.27784 -3.40903 0
    endloop
  endfacet
  facet normal 0.098017 0.995185 -0
    outer loop
      vertex 0 -4.1 0
      vertex -0.79987 -4.02122 5
      vertex 0 -4.1 5
    endloop
  endfacet
  facet normal 0.098017 0.995185 0
    outer loop
      vertex -0.79987 -4.02122 5
      vertex 0 -4.1 0
      vertex -0.79987 -4.02122 0
    endloop
  endfacet
  facet normal 0.634393 0.77301 -0
    outer loop
      vertex -2.27784 -3.40903 0
      vertex -2.89914 -2.89914 5
      vertex -2.27784 -3.40903 5
    endloop
  endfacet
  facet normal 0.634393 0.77301 0
    outer loop
      vertex -2.89914 -2.89914 5
      vertex -2.27784 -3.40903 0
      vertex -2.89914 -2.89914 0
    endloop
  endfacet
  facet normal 0.95694 0.290285 0
    outer loop
      vertex -3.78791 -1.569 5
      vertex -4.02122 -0.79987 0
      vertex -4.02122 -0.79987 5
    endloop
  endfacet
  facet normal 0.95694 0.290285 0
    outer loop
      vertex -4.02122 -0.79987 0
      vertex -3.78791 -1.569 5
      vertex -3.78791 -1.569 0
    endloop
  endfacet
  facet normal 0.995185 0.098017 0
    outer loop
      vertex -4.02122 -0.79987 5
      vertex -4.1 0 0
      vertex -4.1 0 5
    endloop
  endfacet
  facet normal 0.995185 0.098017 0
    outer loop
      vertex -4.1 0 0
      vertex -4.02122 -0.79987 5
      vertex -4.02122 -0.79987 0
    endloop
  endfacet
  facet normal -0.471396 0.881922 0
    outer loop
      vertex 2.27784 -3.40903 0
      vertex 1.569 -3.78791 5
      vertex 2.27784 -3.40903 5
    endloop
  endfacet
  facet normal -0.471396 0.881922 0
    outer loop
      vertex 1.569 -3.78791 5
      vertex 2.27784 -3.40903 0
      vertex 1.569 -3.78791 0
    endloop
  endfacet
  facet normal -0.290285 0.95694 0
    outer loop
      vertex 1.569 -3.78791 0
      vertex 0.79987 -4.02122 5
      vertex 1.569 -3.78791 5
    endloop
  endfacet
  facet normal -0.290285 0.95694 0
    outer loop
      vertex 0.79987 -4.02122 5
      vertex 1.569 -3.78791 0
      vertex 0.79987 -4.02122 0
    endloop
  endfacet
  facet normal -0.77301 0.634393 0
    outer loop
      vertex 2.89914 -2.89914 0
      vertex 3.40903 -2.27784 5
      vertex 3.40903 -2.27784 0
    endloop
  endfacet
  facet normal -0.77301 0.634393 0
    outer loop
      vertex 3.40903 -2.27784 5
      vertex 2.89914 -2.89914 0
      vertex 2.89914 -2.89914 5
    endloop
  endfacet
  facet normal 0.290285 0.95694 -0
    outer loop
      vertex -0.79987 -4.02122 0
      vertex -1.569 -3.78791 5
      vertex -0.79987 -4.02122 5
    endloop
  endfacet
  facet normal 0.290285 0.95694 0
    outer loop
      vertex -1.569 -3.78791 5
      vertex -0.79987 -4.02122 0
      vertex -1.569 -3.78791 0
    endloop
  endfacet
  facet normal 0.881922 0.471396 0
    outer loop
      vertex -3.40903 -2.27784 5
      vertex -3.78791 -1.569 0
      vertex -3.78791 -1.569 5
    endloop
  endfacet
  facet normal 0.881922 0.471396 0
    outer loop
      vertex -3.78791 -1.569 0
      vertex -3.40903 -2.27784 5
      vertex -3.40903 -2.27784 0
    endloop
  endfacet
  facet normal -0.0980191 -0.995185 0
    outer loop
      vertex 7.1 2 0
      vertex 7.49018 1.96157 5
      vertex 7.1 2 5
    endloop
  endfacet
  facet normal -0.0980191 -0.995185 -0
    outer loop
      vertex 7.49018 1.96157 5
      vertex 7.1 2 0
      vertex 7.49018 1.96157 0
    endloop
  endfacet
  facet normal 0.0980191 0.995185 -0
    outer loop
      vertex 7.1 -2 0
      vertex 6.70982 -1.96157 5
      vertex 7.1 -2 5
    endloop
  endfacet
  facet normal 0.0980191 0.995185 0
    outer loop
      vertex 6.70982 -1.96157 5
      vertex 7.1 -2 0
      vertex 6.70982 -1.96157 0
    endloop
  endfacet
  facet normal -0.773011 -0.634392 0
    outer loop
      vertex 8.76294 1.11114 0
      vertex 8.51421 1.41421 5
      vertex 8.51421 1.41421 0
    endloop
  endfacet
  facet normal -0.773011 -0.634392 0
    outer loop
      vertex 8.51421 1.41421 5
      vertex 8.76294 1.11114 0
      vertex 8.76294 1.11114 5
    endloop
  endfacet
  facet normal 0.634394 -0.77301 0
    outer loop
      vertex 5.68579 1.41421 0
      vertex 5.98886 1.66294 5
      vertex 5.68579 1.41421 5
    endloop
  endfacet
  facet normal 0.634394 -0.77301 0
    outer loop
      vertex 5.98886 1.66294 5
      vertex 5.68579 1.41421 0
      vertex 5.98886 1.66294 0
    endloop
  endfacet
  facet normal 0.290285 -0.95694 0
    outer loop
      vertex 6.33463 1.84776 0
      vertex 6.70982 1.96157 5
      vertex 6.33463 1.84776 5
    endloop
  endfacet
  facet normal 0.290285 -0.95694 0
    outer loop
      vertex 6.70982 1.96157 5
      vertex 6.33463 1.84776 0
      vertex 6.70982 1.96157 0
    endloop
  endfacet
  facet normal -0.881923 -0.471394 0
    outer loop
      vertex 8.82234 1 0
      vertex 8.76294 1.11114 5
      vertex 8.76294 1.11114 0
    endloop
  endfacet
  facet normal -0.881923 -0.471394 0
    outer loop
      vertex 8.76294 1.11114 5
      vertex 8.82234 1 0
      vertex 8.82234 1 5
    endloop
  endfacet
  facet normal -0.471395 -0.881922 0
    outer loop
      vertex 7.86537 1.84776 0
      vertex 8.21114 1.66294 5
      vertex 7.86537 1.84776 5
    endloop
  endfacet
  facet normal -0.471395 -0.881922 -0
    outer loop
      vertex 8.21114 1.66294 5
      vertex 7.86537 1.84776 0
      vertex 8.21114 1.66294 0
    endloop
  endfacet
  facet normal -0.290285 -0.95694 0
    outer loop
      vertex 7.49018 1.96157 0
      vertex 7.86537 1.84776 5
      vertex 7.49018 1.96157 5
    endloop
  endfacet
  facet normal -0.290285 -0.95694 -0
    outer loop
      vertex 7.86537 1.84776 5
      vertex 7.49018 1.96157 0
      vertex 7.86537 1.84776 0
    endloop
  endfacet
  facet normal -0.634393 -0.773011 0
    outer loop
      vertex 8.21114 1.66294 0
      vertex 8.51421 1.41421 5
      vertex 8.21114 1.66294 5
    endloop
  endfacet
  facet normal -0.634393 -0.773011 -0
    outer loop
      vertex 8.51421 1.41421 5
      vertex 8.21114 1.66294 0
      vertex 8.51421 1.41421 0
    endloop
  endfacet
  facet normal 0.881921 -0.471397 0
    outer loop
      vertex 5.27075 0.799999 5
      vertex 5.43706 1.11114 0
      vertex 5.43706 1.11114 5
    endloop
  endfacet
  facet normal 0.881921 -0.471397 0
    outer loop
      vertex 5.43706 1.11114 0
      vertex 5.27075 0.799999 5
      vertex 5.27075 0.799999 0
    endloop
  endfacet
  facet normal 0.77301 -0.634394 0
    outer loop
      vertex 5.43706 1.11114 5
      vertex 5.68579 1.41421 0
      vertex 5.68579 1.41421 5
    endloop
  endfacet
  facet normal 0.77301 -0.634394 0
    outer loop
      vertex 5.68579 1.41421 0
      vertex 5.43706 1.11114 5
      vertex 5.43706 1.11114 0
    endloop
  endfacet
  facet normal 0.471395 -0.881922 0
    outer loop
      vertex 5.98886 1.66294 0
      vertex 6.33463 1.84776 5
      vertex 5.98886 1.66294 5
    endloop
  endfacet
  facet normal 0.471395 -0.881922 0
    outer loop
      vertex 6.33463 1.84776 5
      vertex 5.98886 1.66294 0
      vertex 6.33463 1.84776 0
    endloop
  endfacet
  facet normal 0.0980191 -0.995185 0
    outer loop
      vertex 6.70982 1.96157 0
      vertex 7.1 2 5
      vertex 6.70982 1.96157 5
    endloop
  endfacet
  facet normal 0.0980191 -0.995185 0
    outer loop
      vertex 7.1 2 5
      vertex 6.70982 1.96157 0
      vertex 7.1 2 0
    endloop
  endfacet
  facet normal -0.0980191 0.995185 0
    outer loop
      vertex 7.49018 -1.96157 0
      vertex 7.1 -2 5
      vertex 7.49018 -1.96157 5
    endloop
  endfacet
  facet normal -0.0980191 0.995185 0
    outer loop
      vertex 7.1 -2 5
      vertex 7.49018 -1.96157 0
      vertex 7.1 -2 0
    endloop
  endfacet
  facet normal -0.471395 0.881922 0
    outer loop
      vertex 8.21114 -1.66294 0
      vertex 7.86537 -1.84776 5
      vertex 8.21114 -1.66294 5
    endloop
  endfacet
  facet normal -0.471395 0.881922 0
    outer loop
      vertex 7.86537 -1.84776 5
      vertex 8.21114 -1.66294 0
      vertex 7.86537 -1.84776 0
    endloop
  endfacet
  facet normal 0.634394 0.77301 -0
    outer loop
      vertex 5.98886 -1.66294 0
      vertex 5.68579 -1.41421 5
      vertex 5.98886 -1.66294 5
    endloop
  endfacet
  facet normal 0.634394 0.77301 0
    outer loop
      vertex 5.68579 -1.41421 5
      vertex 5.98886 -1.66294 0
      vertex 5.68579 -1.41421 0
    endloop
  endfacet
  facet normal 0.290285 0.95694 -0
    outer loop
      vertex 6.70982 -1.96157 0
      vertex 6.33463 -1.84776 5
      vertex 6.70982 -1.96157 5
    endloop
  endfacet
  facet normal 0.290285 0.95694 0
    outer loop
      vertex 6.33463 -1.84776 5
      vertex 6.70982 -1.96157 0
      vertex 6.33463 -1.84776 0
    endloop
  endfacet
  facet normal 0.881921 0.471397 0
    outer loop
      vertex 5.43706 -1.11114 5
      vertex 5.27075 -0.799999 0
      vertex 5.27075 -0.799999 5
    endloop
  endfacet
  facet normal 0.881921 0.471397 0
    outer loop
      vertex 5.27075 -0.799999 0
      vertex 5.43706 -1.11114 5
      vertex 5.43706 -1.11114 0
    endloop
  endfacet
  facet normal 0.77301 0.634394 0
    outer loop
      vertex 5.68579 -1.41421 5
      vertex 5.43706 -1.11114 0
      vertex 5.43706 -1.11114 5
    endloop
  endfacet
  facet normal 0.77301 0.634394 0
    outer loop
      vertex 5.43706 -1.11114 0
      vertex 5.68579 -1.41421 5
      vertex 5.68579 -1.41421 0
    endloop
  endfacet
  facet normal -0.290285 0.95694 0
    outer loop
      vertex 7.86537 -1.84776 0
      vertex 7.49018 -1.96157 5
      vertex 7.86537 -1.84776 5
    endloop
  endfacet
  facet normal -0.290285 0.95694 0
    outer loop
      vertex 7.49018 -1.96157 5
      vertex 7.86537 -1.84776 0
      vertex 7.49018 -1.96157 0
    endloop
  endfacet
  facet normal -0.634393 0.773011 0
    outer loop
      vertex 8.51421 -1.41421 0
      vertex 8.21114 -1.66294 5
      vertex 8.51421 -1.41421 5
    endloop
  endfacet
  facet normal -0.634393 0.773011 0
    outer loop
      vertex 8.21114 -1.66294 5
      vertex 8.51421 -1.41421 0
      vertex 8.21114 -1.66294 0
    endloop
  endfacet
  facet normal -0.773011 0.634392 0
    outer loop
      vertex 8.51421 -1.41421 0
      vertex 8.76294 -1.11114 5
      vertex 8.76294 -1.11114 0
    endloop
  endfacet
  facet normal -0.773011 0.634392 0
    outer loop
      vertex 8.76294 -1.11114 5
      vertex 8.51421 -1.41421 0
      vertex 8.51421 -1.41421 5
    endloop
  endfacet
  facet normal 0.471395 0.881922 -0
    outer loop
      vertex 6.33463 -1.84776 0
      vertex 5.98886 -1.66294 5
      vertex 6.33463 -1.84776 5
    endloop
  endfacet
  facet normal 0.471395 0.881922 0
    outer loop
      vertex 5.98886 -1.66294 5
      vertex 6.33463 -1.84776 0
      vertex 5.98886 -1.66294 0
    endloop
  endfacet
  facet normal -0.881923 0.471394 0
    outer loop
      vertex 8.76294 -1.11114 0
      vertex 8.82234 -1 5
      vertex 8.82234 -1 0
    endloop
  endfacet
  facet normal -0.881923 0.471394 0
    outer loop
      vertex 8.82234 -1 5
      vertex 8.76294 -1.11114 0
      vertex 8.76294 -1.11114 5
    endloop
  endfacet
  facet normal 0 1 -0
    outer loop
      vertex 5.27075 -0.799999 0
      vertex 4.02118 -0.799999 5
      vertex 5.27075 -0.799999 5
    endloop
  endfacet
  facet normal 0 1 0
    outer loop
      vertex 4.02118 -0.799999 5
      vertex 5.27075 -0.799999 0
      vertex 4.02118 -0.799999 0
    endloop
  endfacet
  facet normal 0 -1 0
    outer loop
      vertex 4.02118 0.799999 0
      vertex 5.27075 0.799999 5
      vertex 4.02118 0.799999 5
    endloop
  endfacet
  facet normal 0 -1 -0
    outer loop
      vertex 5.27075 0.799999 5
      vertex 4.02118 0.799999 0
      vertex 5.27075 0.799999 0
    endloop
  endfacet
  facet normal 0 1 -0
    outer loop
      vertex 11.4765 -1 0
      vertex 8.82234 -1 5
      vertex 11.4765 -1 5
    endloop
  endfacet
  facet normal 0 1 0
    outer loop
      vertex 8.82234 -1 5
      vertex 11.4765 -1 0
      vertex 8.82234 -1 0
    endloop
  endfacet
  facet normal 0 -1 0
    outer loop
      vertex 8.82234 1 0
      vertex 11.4765 1 5
      vertex 8.82234 1 5
    endloop
  endfacet
  facet normal 0 -1 -0
    outer loop
      vertex 11.4765 1 5
      vertex 8.82234 1 0
      vertex 11.4765 1 0
    endloop
  endfacet
endsolid OpenSCAD_Model
