# Alias OBJ Model File
# Exported from SketchUp, (c) 2000-2012 Trimble Navigation Limited
# File units = millimeters

mtllib corner bracket.mtl

g Mesh1 corner_bracket_1_1 Model

usemtl Plastic_Red
v 12.5 62 -29
vt 0.0415655 0.0765568
vn 2.27399e-014 -0.707107 0.707107
v 12.5 29 -62
vt 0.0415655 -0.0765568
v 16 29 -62
vt 0.0542159 -0.0765568
v 16 62 -29
vt 0.0542159 0.0765568
f 1/1/1 2/2/1 3/3/1 4/4/1 

vt -0.224086 0.0951456
vn -1 3.34076e-005 0.000153913
vt -0.104811 0.203413
v 12.5 62 -62
vt -0.224086 0.203413
f 2/5/2 1/6/2 5/7/2

vt -0.0415655 0.0951444
vn 5.87553e-015 -1 8.26128e-016
v 8.19112 62 -45.1975
vt -0.0259915 0.148286
vt -0.0415655 0.203412
f 1/8/3 6/9/3 5/10/3

v 8.16758 62 -44.6237
vt -0.0259064 0.146403
f 1/8/3 7/11/3 6/9/3

v 7.99632 62 -44.0755
vt -0.0252874 0.144605
f 1/8/3 8/12/3 7/11/3

v 7.68902 62 -43.5903
vt -0.0241767 0.143013
f 1/8/3 9/13/3 8/12/3

v 7.26661 62 -43.2012
vt -0.02265 0.141736
f 1/8/3 10/14/3 9/13/3

v 6.75789 62 -42.9347
vt -0.0208113 0.140862
f 1/8/3 11/15/3 10/14/3

v 6.19751 62 -42.8089
vt -0.0187859 0.140449
f 1/8/3 12/16/3 11/15/3

v 5.62368 62 -42.8324
vt -0.0167118 0.140526
f 1/8/3 13/17/3 12/16/3

v 5.07549 62 -43.0037
vt -0.0147304 0.141088
f 1/8/3 14/18/3 13/17/3

v 4.59031 62 -43.311
vt -0.0129768 0.142096
f 1/8/3 15/19/3 14/18/3

v 4.2012 62 -43.7334
vt -0.0115704 0.143482
f 1/8/3 16/20/3 15/19/3

v -1.5 62 -43.5
vt 0.00903598 0.142717
f 1/8/3 17/21/3 16/20/3

v -4 62 -29
vt 0.018072 0.0951444
f 18/22/3 17/21/3 1/8/3

v -4 62 -43.5
vt 0.018072 0.142717
f 17/21/3 18/22/3 19/23/3

v -4 29 -62
vt -0.224092 0.0951444
vn -1 -6.74694e-015 2.52844e-015
v -4 43.5 -62
vt -0.224092 0.142717
vt -0.157226 0.203412
vt -0.104817 0.203412
v -4 65 -29
vt -0.104817 0.213255
v -4 65 -65
vt -0.234935 0.213255
v -4 29 -65
vt -0.234935 0.0951444
f 20/24/4 21/25/4 19/26/4 18/27/4 22/28/4 23/29/4 24/30/4 

v 5.91298 42.8011 -62
vt 0.0177574 0.140424
vn -3.88578e-016 -2.00297e-032 1
vt -0.018072 0.142717
vt -0.018072 0.0951444
f 25/31/5 21/32/5 20/33/5

v 5.34633 42.8946 -62
vt 0.0157093 0.14073
f 21/32/5 25/31/5 26/34/5

vt 0.224092 0.00884577
vn 0.290221 0.95696 1.12773e-016
vt 0.224092 0.00696153
vn 0.0326524 0.999467 1.23036e-017
v 5.91298 42.8011 -65
vt 0.234935 0.00696153
v 5.34633 42.8946 -65
vt 0.234935 0.00884577
f 26/35/6 25/36/7 27/37/7 28/38/6 

vt -0.224092 0.0298142
v 6.48453 42.8574 -62
vt -0.224092 0.0316985
vn -0.227141 0.973862 -8.86465e-017
v 6.48453 42.8574 -65
vt -0.234935 0.0316985
vt -0.234935 0.0298142
f 25/39/7 29/40/8 30/41/8 27/42/7 

vt 0.0198232 0.140608
f 20/33/5 29/43/5 25/31/5

v 7.02202 43.0598 -62
vt 0.0217659 0.141272
f 20/33/5 31/44/5 29/43/5

v 7.48883 43.3943 -62
vt 0.0234532 0.14237
f 20/33/5 32/45/5 31/44/5

v 7.85314 43.8383 -62
vt 0.0247699 0.143826
f 20/33/5 33/46/5 32/45/5

vt 0.0415655 0.0951444
f 2/47/5 33/46/5 20/33/5

v 8.09013 44.3614 -62
vt 0.0256265 0.145543
f 33/46/5 2/47/5 34/48/5

vt 0.0415655 0.203412
f 34/48/5 2/47/5 5/49/5

v 8.18364 44.9281 -62
vt 0.0259645 0.147402
f 34/48/5 5/49/5 35/50/5

v 8.12731 45.4996 -62
vt 0.0257609 0.149277
f 35/50/5 5/49/5 36/51/5

v 7.92497 46.0371 -62
vt 0.0250296 0.15104
f 36/51/5 5/49/5 37/52/5

v 7.59042 46.5039 -62
vt 0.0238203 0.152572
f 37/52/5 5/49/5 38/53/5

v 7.14644 46.8682 -62
vt 0.0222156 0.153767
f 38/53/5 5/49/5 39/54/5

v 6.6233 47.1052 -62
vt 0.0203248 0.154545
f 39/54/5 5/49/5 40/55/5

v 6.05665 47.1988 -62
vt 0.0182767 0.154852
f 40/55/5 5/49/5 41/56/5

v 6.98854 62 -62
vt 0.0216449 0.203412
f 42/57/5 41/56/5 5/49/5

v 5.48511 47.1424 -62
vt 0.0162109 0.154667
f 42/57/5 43/58/5 41/56/5

v 4.94761 46.9401 -62
vt 0.0142682 0.154003
f 42/57/5 44/59/5 43/58/5

v 4.48081 46.6055 -62
vt 0.012581 0.152905
f 42/57/5 45/60/5 44/59/5

v 4.11649 46.1615 -62
vt 0.0112642 0.151449
f 42/57/5 46/61/5 45/60/5

v 3.8795 45.6384 -62
vt 0.0104077 0.149732
f 42/57/5 47/62/5 46/61/5

v -1.5 43.5 -62
vt -0.00903598 0.142717
f 48/63/5 47/62/5 42/57/5

v 3.78599 45.0718 -62
vt 0.0100697 0.147873
f 48/63/5 49/64/5 47/62/5

v 3.84232 44.5002 -62
vt 0.0102733 0.145998
f 48/63/5 50/65/5 49/64/5

v 4.04466 43.9627 -62
vt 0.0110046 0.144235
f 48/63/5 51/66/5 50/65/5

v 4.37922 43.4959 -62
vt 0.0122138 0.142703
f 51/66/5 48/63/5 52/67/5

f 21/32/5 52/67/5 48/63/5

v 4.82319 43.1316 -62
vt 0.0138185 0.141508
f 21/32/5 53/68/5 52/67/5

f 21/32/5 26/34/5 53/68/5

vt 0.224092 0.0469671
vn 0.528011 0.849237 2.05174e-016
vt 0.224092 0.0450829
vt 0.234935 0.0450829
v 4.82319 43.1316 -65
vt 0.234935 0.0469671
f 53/69/9 26/70/6 28/71/6 54/72/9 

v 7.8 40 -65
vt -0.0245779 0.131234
vn -1.0083e-014 -1.45843e-015 -1
vt -0.0138185 0.141508
vt -0.0157093 0.14073
f 55/73/10 54/74/10 28/75/10

v 4.37922 43.4959 -65
vt -0.0122138 0.142703
f 55/73/10 56/76/10 54/74/10

v 3.2 40 -65
vt -0.00795166 0.131234
f 57/77/10 56/76/10 55/73/10

v 4.04466 43.9627 -65
vt -0.0110046 0.144235
f 57/77/10 58/78/10 56/76/10

vt 0.018072 0.213255
f 57/77/10 23/79/10 58/78/10

f 57/77/10 24/22/10 23/79/10

v 3.2 29 -65
vt -0.00795166 0.0951444
f 24/22/10 57/77/10 59/80/10

v 3.2 29 -66.1
vt -0.238911 0.0951444
vn -1 -1.02544e-015 -2.05393e-047
vt -0.234935 0.131234
v 3.2 40 -66.1
vt -0.238911 0.131234
f 60/81/11 59/30/11 57/82/11 61/83/11 

v 7.8 29 -65
vt -0.0245779 0.213255
vn -6.20777e-015 -1 2.57091e-015
v 16 29 -65
vt -0.0542159 0.213255
vt -0.0542159 0.203412
vt 0.018072 0.203412
vt -0.00795166 0.213255
vt -0.00795166 0.216864
v 6.4 29 -66.1
vt -0.0195177 0.216864
f 62/84/12 63/85/12 3/86/12 2/10/12 20/87/12 24/79/12 59/88/12 60/89/12 64/90/12 

vt -0.0245779 0.0951444
v 16 65 -65
vt -0.0542159 0.0951444
f 62/91/10 65/85/10 63/92/10

f 65/85/10 62/91/10 55/73/10

vt 0.125822 0.0951444
vn 0.617822 2.81068e-014 -0.786318
vt 0.132257 0.0951444
v 6.4 40 -66.1
vt 0.132257 0.131234
vt 0.125822 0.131234
f 62/93/13 64/94/13 66/95/13 55/96/13 

vt -0.0195177 0.0951444
vn 3.88578e-016 1.64071e-014 -1
vt -0.0195177 0.131234
f 64/97/14 60/80/14 61/77/14 66/98/14 

vt 0.0245779 0.213255
vn -2.0099e-014 1 7.43168e-014
vt 0.0195177 0.216864
vt 0.00795166 0.216864
vt 0.00795166 0.213255
f 55/99/15 66/100/15 61/101/15 57/102/15 

v 8.09013 44.3614 -65
vt -0.0256265 0.145543
f 65/85/10 55/73/10 67/103/10

v 7.85314 43.8383 -65
vt -0.0247699 0.143826
f 67/103/10 55/73/10 68/104/10

v 7.48883 43.3943 -65
vt -0.0234532 0.14237
f 68/104/10 55/73/10 69/105/10

v 7.02202 43.0598 -65
vt -0.0217659 0.141272
f 69/105/10 55/73/10 70/106/10

vt -0.0198232 0.140608
f 70/106/10 55/73/10 30/107/10

vt -0.0177574 0.140424
f 30/107/10 55/73/10 27/108/10

f 55/73/10 28/75/10 27/108/10

vt -0.224092 0.0663782
vt -0.224092 0.0682624
vn -0.471456 0.88189 -1.83197e-016
vt -0.234935 0.0682624
vt -0.234935 0.0663782
f 29/109/8 31/110/16 70/111/16 30/112/8 

vt -0.224092 0.0983544
vt -0.224092 0.100239
vn -0.683641 0.729818 -2.65648e-016
vt -0.234935 0.100239
vt -0.234935 0.0983544
f 31/113/16 32/114/17 69/115/17 70/116/16 

vt -0.224092 0.123564
vt -0.224092 0.125448
vn -0.849237 0.528011 -3.29995e-016
vt -0.234935 0.125448
vt -0.234935 0.123564
f 32/117/17 33/118/18 68/119/18 69/120/17 

vt -0.224092 0.140288
vt -0.224092 0.142172
vn -0.95696 0.290221 -3.71854e-016
vt -0.234935 0.142172
vt -0.234935 0.140288
f 33/121/18 34/122/19 67/123/19 68/124/18 

vt -0.224092 0.147388
vt -0.224092 0.149272
vn -0.999467 0.0326524 -3.87883e-016
v 8.18364 44.9281 -65
vt -0.234935 0.149272
vt -0.234935 0.147388
f 34/125/19 35/126/20 71/127/20 67/128/19 

vt -0.224092 0.144379
vt -0.224092 0.146264
vn -0.973862 -0.227141 -3.77934e-016
v 8.12731 45.4996 -65
vt -0.234935 0.146264
vt -0.234935 0.144379
f 35/129/20 36/130/21 72/131/21 71/132/20 

vt -0.224092 0.131467
vt -0.224092 0.133352
vn -0.88189 -0.471456 -3.42683e-016
v 7.92497 46.0371 -65
vt -0.234935 0.133352
vt -0.234935 0.131467
f 36/133/21 37/134/22 73/135/22 72/136/21 

vt -0.224092 0.109532
vt -0.224092 0.111416
vn -0.729818 -0.683641 -2.83591e-016
v 7.59042 46.5039 -65
vt -0.234935 0.111416
vt -0.234935 0.109532
f 37/137/22 38/138/23 74/139/23 73/140/22 

vt -0.224092 0.0800677
vt -0.224092 0.081952
vn -0.528011 -0.849237 -2.05174e-016
v 7.14644 46.8682 -65
vt -0.234935 0.081952
vt -0.234935 0.0800677
f 38/141/23 39/142/24 75/143/24 74/144/23 

vt -0.224092 0.0450829
vt -0.224092 0.0469671
vn -0.290221 -0.95696 -1.12773e-016
v 6.6233 47.1052 -65
vt -0.234935 0.0469671
vt -0.234935 0.0450829
f 39/145/24 40/146/25 76/147/25 75/148/24 

vt -0.224092 0.00696153
vt -0.224092 0.00884577
vn -0.0326524 -0.999467 -1.2688e-017
v 6.05665 47.1988 -65
vt -0.234935 0.00884577
vt -0.234935 0.00696153
f 40/149/25 41/150/26 77/151/26 76/152/25 

vt 0.224092 0.0316985
vt 0.224092 0.0298142
vn 0.227141 -0.973862 8.82621e-017
v 5.48511 47.1424 -65
vt 0.234935 0.0298142
vt 0.234935 0.0316985
f 41/153/26 43/154/27 78/155/27 77/156/26 

vt 0.224092 0.0682624
vt 0.224092 0.0663782
vn 0.471456 -0.88189 1.83197e-016
v 4.94761 46.9401 -65
vt 0.234935 0.0663782
vt 0.234935 0.0682624
f 43/157/27 44/158/28 79/159/28 78/160/27 

vt 0.224092 0.100239
vt 0.224092 0.0983544
vn 0.683641 -0.729818 2.65648e-016
v 4.48081 46.6055 -65
vt 0.234935 0.0983544
vt 0.234935 0.100239
f 44/161/28 45/162/29 80/163/29 79/164/28 

vt 0.224092 0.125448
vt 0.224092 0.123564
vn 0.849237 -0.528011 3.29995e-016
v 4.11649 46.1615 -65
vt 0.234935 0.123564
vt 0.234935 0.125448
f 45/165/29 46/166/30 81/167/30 80/168/29 

vt 0.224092 0.142172
vt 0.224092 0.140288
vn 0.95696 -0.290221 3.71854e-016
v 3.8795 45.6384 -65
vt 0.234935 0.140288
vt 0.234935 0.142172
f 46/169/30 47/170/31 82/171/31 81/172/30 

vt 0.224092 0.149272
vt 0.224092 0.147388
vn 0.999467 -0.0326524 3.88858e-016
v 3.78599 45.0718 -65
vt 0.234935 0.147388
vt 0.234935 0.149272
f 47/173/31 49/174/32 83/175/32 82/176/31 

vt 0.224092 0.146264
vt 0.224092 0.144379
vn 0.973862 0.227141 3.78909e-016
v 3.84232 44.5002 -65
vt 0.234935 0.144379
vt 0.234935 0.146264
f 49/177/32 50/178/33 84/179/33 83/180/32 

vt 0.224092 0.133352
vt 0.224092 0.131467
vn 0.88189 0.471456 3.42683e-016
vt 0.234935 0.131467
vt 0.234935 0.133352
f 50/181/33 51/182/34 58/183/34 84/184/33 

vt 0.224092 0.111416
vt 0.224092 0.109532
vn 0.729818 0.683641 2.83591e-016
vt 0.234935 0.109532
vt 0.234935 0.111416
f 51/185/34 52/186/35 56/187/35 58/188/34 

vt 0.224092 0.081952
vt 0.224092 0.0800677
vt 0.234935 0.0800677
vt 0.234935 0.081952
f 52/189/35 53/190/9 54/191/9 56/192/35 

vt -0.0102733 0.145998
f 58/78/10 23/79/10 84/193/10

vt -0.0100697 0.147873
f 84/193/10 23/79/10 83/194/10

vt -0.0104077 0.149732
f 83/194/10 23/79/10 82/195/10

vt -0.0112642 0.151449
f 82/195/10 23/79/10 81/196/10

vt -0.012581 0.152905
f 81/196/10 23/79/10 80/197/10

vt -0.0142682 0.154003
f 80/197/10 23/79/10 79/198/10

vt -0.0162109 0.154667
f 79/198/10 23/79/10 78/199/10

vt -0.0182767 0.154852
f 78/199/10 23/79/10 77/200/10

v 3.2 55 -65
vt -0.00795166 0.180446
f 77/200/10 23/79/10 85/201/10

v 3.2 65 -65
f 85/201/10 23/79/10 86/88/10

vn -5.36067e-015 1 2.57023e-015
vt -0.018072 0.213255
f 22/33/36 86/102/36 23/202/36

v 3.2 65 -29
vt 0.00795166 0.0951444
f 86/102/36 22/33/36 87/203/36

vn 7.12066e-015 -1.87352e-014 1
vt -0.018072 0.203412
vt 0.0542159 0.203412
v 16 65 -29
vt 0.0542159 0.213255
v 7.8 65 -29
v 6.4 66.1 -29
v 3.2 66.1 -29
f 87/102/37 22/202/37 18/204/37 1/49/37 4/205/37 88/206/37 89/99/37 90/100/37 91/101/37 

vt 0.104817 0.213255
vn 1 -1.14859e-017 1.6756e-016
vt 0.104817 0.203412
vt 0.224092 0.0951444
vt 0.234935 0.0951444
vt 0.234935 0.213255
f 88/207/38 4/208/38 3/209/38 63/210/38 65/211/38 

v 8.19112 65 -45.1975
vt 0.0259915 0.148286
vt 0.0542159 0.0951444
f 65/206/36 92/212/36 88/213/36

v 8.06533 65 -45.7579
vt 0.0255369 0.150124
f 65/206/36 93/214/36 92/212/36

v 7.8 65 -55
vt 0.0245779 0.180446
f 65/206/36 94/215/36 93/214/36

v 7.8 65 -65
f 94/215/36 65/206/36 95/99/36

v 7.8 55 -65
vt -0.0245779 0.180446
f 65/85/10 96/216/10 95/84/10

f 65/85/10 77/200/10 96/216/10

vt -0.0203248 0.154545
f 65/85/10 76/217/10 77/200/10

vt -0.0222156 0.153767
f 65/85/10 75/218/10 76/217/10

vt -0.0238203 0.152572
f 65/85/10 74/219/10 75/218/10

vt -0.0250296 0.15104
f 65/85/10 73/220/10 74/219/10

vt -0.0257609 0.149277
f 65/85/10 72/221/10 73/220/10

vt -0.0259645 0.147402
f 65/85/10 71/222/10 72/221/10

f 65/85/10 67/103/10 71/222/10

f 77/200/10 85/201/10 96/216/10

v 6.4 55 -66.1
vn 9.81151e-015 -1 -8.82791e-014
v 3.2 55 -66.1
f 97/90/39 96/84/39 85/88/39 98/89/39 

v 6.4 65 -66.1
vt 0.132257 0.213255
vn 0.617822 -1.09476e-047 -0.786318
vt 0.125822 0.213255
vt 0.125822 0.180446
vt 0.132257 0.180446
f 99/223/40 95/224/40 96/225/40 97/226/40 

v 3.2 65 -66.1
vn 4.8586e-015 1 1.7417e-014
f 100/101/41 86/102/41 95/99/41 99/100/41 

vt -0.238911 0.213255
vn -1 -9.02389e-015 -3.88578e-016
vt -0.238911 0.180446
vt -0.234935 0.180446
f 100/227/42 98/228/42 85/229/42 86/29/42 

vn 3.88578e-016 2.00297e-032 -1
vt -0.0195177 0.213255
vt -0.0195177 0.180446
f 100/88/43 99/230/43 97/231/43 98/201/43 

v 6.4 66.1 -65
vn -2.60509e-014 6.52103e-014 -1
v 3.2 66.1 -65
f 101/90/44 95/84/44 86/88/44 102/89/44 

vt 0.234935 0.114211
vn 0.617822 0.786318 -8.36057e-015
vt 0.234935 0.120052
v 6.4 66.1 -55
vt 0.198792 0.120052
vt 0.198792 0.114211
f 95/232/45 101/233/45 103/234/45 94/235/45 

vt 0.0195177 0.213255
vn -7.44647e-014 1 2.03038e-014
v 3.2 66.1 -55
vt 0.00795166 0.180446
vt 0.0195177 0.180446
f 101/236/46 102/102/46 104/237/46 103/238/46 

vn -1 -8.20354e-014 7.18026e-014
v 3.2 65 -55
vt -0.198792 0.213255
vt -0.198792 0.216864
vt -0.234935 0.216864
f 86/29/47 105/239/47 104/240/47 102/241/47 

f 86/102/36 87/203/36 105/237/36

v 3.2 65 -40
vt 0.00795166 0.131234
f 105/237/36 87/203/36 106/242/36

vn -1 -1.23053e-013 2.01203e-014
vt -0.104817 0.216864
v 3.2 66.1 -40
vt -0.144576 0.216864
vt -0.144576 0.213255
f 87/28/48 91/243/48 107/244/48 106/245/48 

vn -7.04992e-014 1 2.10216e-014
vt 0.0195177 0.0951444
v 6.4 66.1 -40
vt 0.0195177 0.131234
f 91/203/49 90/246/49 108/247/49 107/242/49 

vt 0.104817 0.120052
vn 0.617822 0.786318 -2.30631e-015
vt 0.104817 0.114211
v 7.8 65 -40
vt 0.144576 0.114211
vt 0.144576 0.120052
f 90/248/50 89/249/50 109/250/50 108/251/50 

v 7.99632 65 -44.0755
vt 0.0252874 0.144605
vt 0.0245779 0.131234
vt 0.0245779 0.0951444
f 110/252/36 109/253/36 89/254/36

v 7.68902 65 -43.5903
vt 0.0241767 0.143013
f 111/255/36 109/253/36 110/252/36

v 7.26661 65 -43.2012
vt 0.02265 0.141736
f 112/256/36 109/253/36 111/255/36

v 6.75789 65 -42.9347
vt 0.0208113 0.140862
f 113/257/36 109/253/36 112/256/36

v 6.19751 65 -42.8089
vt 0.0187859 0.140449
f 114/258/36 109/253/36 113/257/36

v 5.62368 65 -42.8324
vt 0.0167118 0.140526
f 115/259/36 109/253/36 114/258/36

v 5.07549 65 -43.0037
vt 0.0147304 0.141088
f 116/260/36 109/253/36 115/259/36

v 4.59031 65 -43.311
vt 0.0129768 0.142096
f 117/261/36 109/253/36 116/260/36

f 117/261/36 106/242/36 109/253/36

v 4.2012 65 -43.7334
vt 0.0115704 0.143482
f 118/262/36 106/242/36 117/261/36

v 3.93467 65 -44.2421
vt 0.010607 0.145151
f 119/263/36 106/242/36 118/262/36

v 3.80888 65 -44.8025
vt 0.0101524 0.14699
f 106/242/36 119/263/36 120/264/36

v 3.93467 62 -44.2421
vt 0.153703 0.203412
vn 0.938788 -1.41178e-014 -0.344494
v 3.80888 62 -44.8025
vt 0.155779 0.203412
vn 0.995962 -1.49788e-014 -0.0897794
vt 0.155779 0.213255
vt 0.153703 0.213255
f 121/265/51 122/266/52 120/267/52 119/268/51 

vt -0.010607 0.145151
vt -0.0101524 0.14699
f 121/269/3 17/21/3 122/270/3

f 16/20/3 17/21/3 121/269/3

vt 0.134647 0.203412
vn 0.817638 -1.22944e-014 -0.575732
vt 0.136723 0.203412
vt 0.136723 0.213255
vt 0.134647 0.213255
f 16/271/53 121/272/51 119/273/51 118/274/53 

vt 0.106344 0.203412
vn 0.640768 -9.63758e-015 -0.767735
vt 0.10842 0.203412
vt 0.10842 0.213255
vt 0.106344 0.213255
f 15/275/54 16/276/53 118/277/53 117/278/54 

vt 0.0707237 0.203412
vn 0.42023 -6.32198e-015 -0.907418
vt 0.0727995 0.203412
vt 0.0727995 0.213255
vt 0.0707237 0.213255
f 14/279/55 15/280/54 117/281/54 116/282/55 

vt 0.0302126 0.203412
vn 0.171054 -2.57213e-015 -0.985262
vt 0.0322884 0.203412
vt 0.0322884 0.213255
vt 0.0302126 0.213255
f 13/283/56 14/284/55 116/285/55 115/286/56 

vt -0.0124281 0.203412
vn -0.0897794 1.35082e-015 -0.995962
vt -0.0103523 0.203412
vt -0.0103523 0.213255
vt -0.0124281 0.213255
f 12/287/57 13/288/56 115/289/56 114/290/57 

vt -0.0542926 0.203412
vn -0.344494 5.18095e-015 -0.938788
vt -0.0522168 0.203412
vt -0.0522168 0.213255
vt -0.0542926 0.213255
f 11/291/58 12/292/57 114/293/57 113/294/58 

vt -0.092528 0.203412
vn -0.575732 8.65836e-015 -0.817638
vt -0.0904522 0.203412
vt -0.0904522 0.213255
vt -0.092528 0.213255
f 10/295/59 11/296/58 113/297/58 112/298/59 

vt -0.124528 0.203412
vn -0.767735 1.15452e-014 -0.640768
vt -0.122453 0.203412
vt -0.122453 0.213255
vt -0.124528 0.213255
f 9/299/60 10/300/59 112/301/59 111/302/60 

vt -0.148113 0.203412
vn -0.907418 1.36473e-014 -0.42023
vt -0.146037 0.203412
vt -0.146037 0.213255
vt -0.148113 0.213255
f 8/303/61 9/304/60 111/305/60 110/306/61 

vt -0.161675 0.203412
vn -0.985262 1.48195e-014 -0.171054
vt -0.159599 0.203412
vt -0.159599 0.213255
v 8.16758 65 -44.6237
vt -0.161675 0.213255
f 7/307/62 8/308/61 110/309/61 123/310/62 

vt 0.0259064 0.146403
f 110/252/36 88/213/36 123/311/36

f 110/252/36 89/254/36 88/213/36

f 123/311/36 88/213/36 92/212/36

vt -0.16429 0.203412
vn -0.995962 1.49772e-014 0.0897794
vt -0.162214 0.203412
vt -0.162214 0.213255
vt -0.16429 0.213255
f 6/312/63 7/313/62 123/314/62 92/315/63 

v 8.06533 62 -45.7579
vt -0.155779 0.203412
vn -0.938788 1.41188e-014 0.344494
vt -0.153703 0.203412
vt -0.153703 0.213255
vt -0.155779 0.213255
f 124/316/64 6/317/63 92/318/63 93/319/64 

vt -0.0255369 0.150124
f 124/320/3 5/10/3 6/9/3

v 7.7988 62 -46.2666
vt -0.0245735 0.151793
f 125/321/3 5/10/3 124/320/3

v 7.40969 62 -46.689
vt -0.0231671 0.153179
f 126/322/3 5/10/3 125/321/3

vt -0.0216449 0.203412
f 126/322/3 42/323/3 5/10/3

v 6.92451 62 -46.9963
vt -0.0214135 0.154187
f 127/324/3 42/323/3 126/322/3

v 6.37632 62 -47.1676
vt -0.0194321 0.154749
f 128/325/3 42/323/3 127/324/3

v 5.80249 62 -47.1911
vt -0.0173581 0.154826
f 129/326/3 42/323/3 128/325/3

v 5.24211 62 -47.0653
vt -0.0153327 0.154414
f 130/327/3 42/323/3 129/326/3

v 4.73339 62 -46.7988
vt -0.0134939 0.153539
f 131/328/3 42/323/3 130/327/3

v 4.31098 62 -46.4097
vt -0.0119672 0.152263
f 132/329/3 42/323/3 131/328/3

v 4.00368 62 -45.9245
vt -0.0108565 0.150671
f 133/330/3 42/323/3 132/329/3

v 3.83242 62 -45.3763
vt -0.0102375 0.148872
f 134/331/3 42/323/3 133/330/3

f 134/331/3 17/21/3 42/323/3

f 17/21/3 134/331/3 122/270/3

vt 0.162214 0.203412
vt 0.16429 0.203412
vn 0.985262 -1.48173e-014 0.171054
v 3.83242 65 -45.3763
vt 0.16429 0.213255
vt 0.162214 0.213255
f 122/332/52 134/333/65 135/334/65 120/335/52 

vt 0.159599 0.203412
vt 0.161675 0.203412
vn 0.907418 -1.36483e-014 0.42023
v 4.00368 65 -45.9245
vt 0.161675 0.213255
vt 0.159599 0.213255
f 134/336/65 133/337/66 136/338/66 135/339/65 

vt 0.146037 0.203412
vt 0.148113 0.203412
vn 0.767735 -1.15514e-014 0.640768
v 4.31098 65 -46.4097
vt 0.148113 0.213255
vt 0.146037 0.213255
f 133/340/66 132/341/67 137/342/67 136/343/66 

vt 0.122453 0.203412
vt 0.124528 0.203412
vn 0.575732 -8.66256e-015 0.817638
v 4.73339 65 -46.7988
vt 0.124528 0.213255
vt 0.122453 0.213255
f 132/344/67 131/345/68 138/346/68 137/347/67 

vt 0.0904522 0.203412
vt 0.092528 0.203412
vn 0.344494 -5.18264e-015 0.938788
v 5.24211 65 -47.0653
vt 0.092528 0.213255
vt 0.0904522 0.213255
f 131/348/68 130/349/69 139/350/69 138/351/68 

vt 0.0522168 0.203412
vt 0.0542926 0.203412
vn 0.0897794 -1.35103e-015 0.995962
v 5.80249 65 -47.1911
vt 0.0542926 0.213255
vt 0.0522168 0.213255
f 130/352/69 129/353/70 140/354/70 139/355/69 

vt 0.0103523 0.203412
vt 0.0124281 0.203412
vn -0.171054 2.57229e-015 0.985262
v 6.37632 65 -47.1676
vt 0.0124281 0.213255
vt 0.0103523 0.213255
f 129/356/70 128/357/71 141/358/71 140/359/70 

vt -0.0322884 0.203412
vt -0.0302126 0.203412
vn -0.42023 6.31613e-015 0.907418
v 6.92451 65 -46.9963
vt -0.0302126 0.213255
vt -0.0322884 0.213255
f 128/360/71 127/361/72 142/362/72 141/363/71 

vt -0.0727995 0.203412
vt -0.0707237 0.203412
vn -0.640768 9.63218e-015 0.767735
v 7.40969 65 -46.689
vt -0.0707237 0.213255
vt -0.0727995 0.213255
f 127/364/72 126/365/73 143/366/73 142/367/72 

vt -0.10842 0.203412
vt -0.106344 0.203412
vn -0.817638 1.22973e-014 0.575732
v 7.7988 65 -46.2666
vt -0.106344 0.213255
vt -0.10842 0.213255
f 126/368/73 125/369/74 144/370/74 143/371/73 

vt -0.136723 0.203412
vt -0.134647 0.203412
vt -0.134647 0.213255
vt -0.136723 0.213255
f 125/372/74 124/373/64 93/374/64 144/375/74 

vt 0.0245735 0.151793
f 94/215/36 144/376/36 93/214/36

vt 0.0231671 0.153179
f 94/215/36 143/377/36 144/376/36

vt 0.0214135 0.154187
f 94/215/36 142/378/36 143/377/36

vt 0.0194321 0.154749
f 94/215/36 141/379/36 142/378/36

vt 0.0173581 0.154826
f 94/215/36 140/380/36 141/379/36

vt 0.0153327 0.154414
f 94/215/36 139/381/36 140/380/36

vt 0.0134939 0.153539
f 94/215/36 138/382/36 139/381/36

vt 0.0119672 0.152263
f 94/215/36 137/383/36 138/382/36

vt 0.0108565 0.150671
f 94/215/36 136/384/36 137/383/36

f 105/237/36 136/384/36 94/215/36

vt 0.0102375 0.148872
f 136/384/36 105/237/36 135/385/36

f 135/385/36 105/237/36 106/242/36

f 135/385/36 106/242/36 120/264/36

f 94/99/5 103/100/5 104/101/5 105/102/5 

vt 0.139133 0.161962
vn 0.838866 -0.384905 0.384905
vt 0.199907 0.0962002
vt 0.212702 0.161962
f 17/386/75 48/387/75 42/388/75

vt -0.018072 0.0429182
vn 4.79004e-015 -0.707107 0.707107
vt -0.018072 -0.0429182
vt -0.00903598 -0.0429182
vt -0.00903598 0.0429182
f 19/389/76 21/390/76 48/391/76 17/392/76 

vn -8.41026e-014 -9.47848e-014 -1
f 108/90/77 109/84/77 106/88/77 107/89/77 

